<?xml version="1.0" encoding="UTF-8"?>
<svg width="104px" height="98px" viewBox="0 0 104 98" version="1.1" xmlns="http://www.w3.org/2000/svg" xmlns:xlink="http://www.w3.org/1999/xlink">
    <title>无权限</title>
    <g id="套餐选择" stroke="none" stroke-width="1" fill="none" fill-rule="evenodd">
        <g id="暂无权限" transform="translate(-667.000000, -460.000000)" fill-rule="nonzero">
            <g id="无权限" transform="translate(667.430445, 460.721207)">
                <path d="M78.7524753,96.039604 C83.0306031,96.039604 86.4356436,92.6345635 86.4356436,88.3564356 L86.4356436,8.55625566 C86.4356436,4.27812788 89.8406841,0.873087275 94.118812,0.873087275 L22.5256526,0.873087275 C18.2475248,0.873087275 14.8424843,4.27812778 14.8424843,8.55625566 L14.8424843,96.1269127 L78.7524753,96.1269127 L78.7524753,96.039604 Z" id="路径" fill="#FFFFFF"></path>
                <path d="M94.2061207,0.873087275 C89.9279929,0.873087275 86.5229524,4.27812778 86.5229524,8.55625566 L86.5229524,19.2079208 L101.889289,19.2079208 L101.889289,8.55625566 C101.889289,4.27812788 98.3969398,0.873087275 94.2061207,0.873087275 L94.2061207,0.873087275 Z M80.149415,95.9522952 L8.46894697,95.9522952 C4.19081919,95.9522952 0.785778578,92.5472547 0.785778578,88.2691269 L0.785778578,83.5544555 L72.4662467,83.5544555 L72.4662467,88.2691269 C72.4662467,92.5472547 75.9585959,95.9522952 80.149415,95.9522952 Z M50.5517552,71.3312331 C41.0351036,71.3312331 33.3519353,65.8307831 33.3519353,56.3141314 L33.3519353,62.4257426 C33.3519353,71.9423942 41.0351036,77.4428443 50.5517552,77.4428443 C60.0684068,77.4428443 67.7515752,71.9423943 67.7515752,62.4257426 L67.7515752,56.3141314 C67.7515752,65.7434744 60.0684069,71.3312331 50.5517552,71.3312331 L50.5517552,71.3312331 Z" id="形状" fill="#C7CAC7"></path>
                <path d="M67.8388839,43.7416742 L67.8388839,56.2268227 C67.8388839,65.7434744 60.1557156,71.2439244 50.639064,71.2439244 C41.1224124,71.2439244 33.439244,65.7434744 33.439244,56.2268227 L33.439244,43.7416742 L67.8388839,43.7416742 Z" id="路径" fill="#0067CC"></path>
                <path d="M46.5355536,53.869487 C46.5353221,55.3356844 47.3173961,56.6906057 48.5871217,57.4237712 C49.8568473,58.1569367 51.4212806,58.1569367 52.6910062,57.4237712 C53.9607318,56.6906057 54.7428058,55.3356844 54.7425743,53.869487 C54.7428058,52.4032896 53.9607318,51.0483683 52.6910062,50.3152028 C51.4212806,49.5820373 49.8568473,49.5820373 48.5871217,50.3152028 C47.3173961,51.0483683 46.5353221,52.4032896 46.5355536,53.869487 L46.5355536,53.869487 Z" id="路径" fill="#FFFFFF"></path>
                <path d="M94.2061207,0 L22.5256526,0 C17.8109811,0 13.9693969,3.84158419 13.969397,8.55625566 L13.969397,82.7686769 L0.873087377,82.7686769 C0.349234992,82.7686769 0,83.1179118 0,83.6417642 L0,88.3564356 C0,93.0711071 3.84158419,96.9126913 8.55625566,96.9126913 L14.4932494,96.9126913 C14.5805581,97 14.7551756,97 14.8424843,97 L78.839784,97 C79.1890189,97 79.6255626,97 79.9747976,96.9126913 L80.2367238,96.9126913 C80.4113413,96.9126913 80.49865,96.8253826 80.6732674,96.8253826 C84.5148515,96.039604 87.3960397,92.5472548 87.3960397,88.4437444 L87.3960397,19.9936993 L101.889289,19.9936993 C102.413141,19.9936993 102.762376,19.6444645 102.762376,19.1206121 L102.762376,8.55625566 C102.762376,3.84158419 98.9207921,0 94.2061207,0 Z M15.7155716,95.079208 L8.46894697,95.079208 C4.71467157,95.079208 1.65886596,92.0234023 1.65886596,88.2691269 L1.65886596,84.4275427 L71.5931594,84.4275427 L71.5931594,88.2691269 C71.5931594,91.0630064 72.9027904,93.5076508 74.9981999,95.079208 L15.7155716,95.079208 L15.7155716,95.079208 Z M85.5625563,88.3564356 C85.5625563,91.7614761 83.1179119,94.5553556 79.8001801,95.079208 C76.2205221,94.9045905 73.2520253,91.9360936 73.2520253,88.2691269 L73.2520253,83.5544555 C73.2520253,83.0306031 72.9027904,82.6813682 72.378938,82.6813682 L15.7155716,82.6813682 L15.7155716,8.46894686 C15.7155716,4.71467147 18.7713772,1.65886585 22.5256526,1.65886585 L89.0549055,1.65886585 L88.9675968,1.74617465 C88.7929793,1.83348335 88.7056706,2.00810084 88.5310531,2.09540954 C88.4437444,2.18271824 88.3564356,2.27002704 88.2691269,2.27002704 L87.7452746,2.79387942 C87.7452746,2.88118812 87.6579659,2.88118812 87.6579659,2.96849682 C87.4833484,3.23042301 87.308731,3.40504051 87.1341135,3.6669667 C87.0468048,3.75427539 87.0468048,3.84158419 86.959496,3.92889289 C86.8721873,4.10351039 86.6975698,4.27812778 86.6102611,4.45274528 C86.5229524,4.54005397 86.5229524,4.62736277 86.4356436,4.71467147 L86.1737174,5.23852385 C86.0864087,5.32583255 86.0864087,5.50045005 86.0864087,5.58775874 C85.9991,5.76237624 85.9991,5.93699363 85.9117912,6.11161113 C85.9117912,6.19891983 85.8244825,6.37353732 85.8244825,6.46084612 C85.7371738,6.63546362 85.7371738,6.89738981 85.7371738,7.0720072 C85.7371738,7.1593159 85.7371738,7.2466247 85.649865,7.3339334 C85.649865,7.68316829 85.5625563,7.94509448 85.5625563,8.29432947 L85.5625563,88.3564356 Z M101.016202,18.2475248 L87.3960397,18.2475248 L87.3960397,8.55625566 C87.3960397,4.80198027 90.4518453,1.74617465 94.2061207,1.74617465 C97.9603961,1.74617465 101.016202,4.80198027 101.016202,8.55625566 L101.016202,18.2475248 L101.016202,18.2475248 Z" id="形状" fill="#000000"></path>
                <path d="M67.8388839,42.8685869 L64.8703871,42.8685869 L64.8703871,37.3681369 C64.8703871,29.5103511 58.4968498,23.049505 50.5517552,23.049505 C42.6939694,23.049505 36.2331233,29.4230423 36.2331234,37.3681369 L36.2331234,42.8685869 L33.2646265,42.8685869 C32.7407741,42.8685869 32.3915392,43.2178218 32.3915392,43.7416742 L32.3915392,56.2268227 C32.3915392,65.568857 39.8127813,72.1170117 50.4644465,72.1170117 C61.1161117,72.1170117 68.5373538,65.5688569 68.5373538,56.2268227 L68.5373538,43.7416742 C68.7119713,43.2178218 68.3627363,42.8685869 67.8388839,42.8685869 Z M38.0666067,37.3681369 C38.0666067,30.4707472 43.6543655,24.7956796 50.639064,24.7956796 C57.6237625,24.7956796 63.2115212,30.3834384 63.2115212,37.3681369 L63.2115212,42.8685869 L59.9810981,42.8685869 L59.9810981,37.3681369 C59.9810981,32.2169217 55.790279,28.0261026 50.639064,28.0261026 C45.4878488,28.0261026 41.2970298,32.2169217 41.2970298,37.3681369 L41.2970298,42.8685869 L38.1539154,42.8685869 L38.1539154,37.3681369 L38.0666067,37.3681369 Z M58.2349236,37.3681369 L58.2349236,42.8685869 L43.0432044,42.8685869 L43.0432044,37.3681369 C43.0432044,33.1773178 46.4482449,29.7722773 50.639064,29.7722773 C54.8298831,29.7722773 58.2349236,33.0900091 58.2349236,37.3681369 Z M66.9657966,56.2268227 C66.9657966,63.2988299 61.9018903,70.3708371 50.639064,70.3708371 C39.3762377,70.3708371 34.3123312,63.2988299 34.3123312,56.2268227 L34.3123312,44.6147615 L66.9657966,44.6147615 L66.9657966,56.2268227 Z" id="形状" fill="#000000"></path>
                <path d="M50.639064,48.8928893 C47.8451846,48.8928893 45.6624663,51.1629164 45.6624663,53.869487 C45.6624663,56.3141314 47.408641,58.3222323 49.7659766,58.7587759 L49.7659766,63.5607561 C49.7659766,64.0846085 50.1152115,64.4338434 50.639064,64.4338434 C51.1629165,64.4338434 51.5121513,64.0846085 51.5121513,63.5607561 L51.5121513,58.7587759 C53.869487,58.3222323 55.6156617,56.3141314 55.6156617,53.869487 C55.6156617,51.0756076 53.3456346,48.8928893 50.639064,48.8928893 Z M50.639064,57.09991 C48.8928893,57.09991 47.4086409,55.6156616 47.4086409,53.869487 C47.4086409,52.1233125 48.8928893,50.6390639 50.639064,50.6390639 C52.3852386,50.6390639 53.869487,52.1233123 53.869487,53.869487 C53.869487,55.6156617 52.3852385,57.09991 50.639064,57.09991 L50.639064,57.09991 Z" id="形状" fill="#000000"></path>
                <g id="Z·X·Y" transform="translate(29.944331, 10.323142)" fill="#333333">
                    <polygon id="路径" points="7.11972851 8.37675728 0 8.37675728 0 7.29488826 5.11054319 1.18490417 0.443051123 1.18490417 0.443051123 0 6.94456876 0 6.94456876 1.11277956 1.76190098 7.20215663 7.11972851 7.20215663"></polygon>
                    <polygon id="路径" points="13.2812302 3.43107032 13.2812302 4.91477641 11.8181311 4.91477641 11.8181311 3.43107032"></polygon>
                    <path d="M22.8016776,4.13170931 L25.9648565,8.37675728 L24.1617415,8.37675728 C22.9871408,6.59768378 22.3242814,5.59480837 22.1731632,5.36813105 C22.070128,5.19640581 21.9636584,5.02468056 21.8537542,4.85295532 C21.7438501,5.02468056 21.6305114,5.19640581 21.5137382,5.36813105 C20.8405753,6.37100646 20.1674124,7.37388187 19.4942494,8.37675728 L17.7529555,8.37675728 L20.9161344,4.12140579 L18.0517574,0 L19.7724443,0 C20.7615817,1.57987222 21.3317095,2.49345051 21.4828277,2.74073485 C21.6133389,2.96054316 21.7438501,3.17691697 21.8743613,3.38985627 C22.0186105,3.16317895 22.1594252,2.93650163 22.2968053,2.70982431 C22.4341855,2.47627798 22.9871408,1.57300321 23.9556712,0 L25.6763581,0 L22.8016776,4.13170931 Z" id="路径"></path>
                    <polygon id="路径" points="31.8996809 3.43107032 31.8996809 4.91477641 30.4365818 4.91477641 30.4365818 3.43107032"></polygon>
                    <path d="M36.3611026,0 L37.9890579,0 C38.9095052,1.40127797 39.5964062,2.45223645 40.0497608,3.15287543 C40.2764381,3.51006394 40.4138183,3.74017576 40.4619014,3.8432109 L40.4722049,3.8432109 C40.6095851,3.62340259 40.7469653,3.40015978 40.8843455,3.17348246 C40.9599046,3.0567093 41.6330675,1.99888181 42.9038343,0 L44.5420931,0 L41.1213263,4.93538344 L41.1213263,8.37675728 L39.6994413,8.37675728 L39.6994413,4.95599047 L36.3611026,0 Z" id="路径"></path>
                </g>
            </g>
        </g>
    </g>
</svg>