<?xml version="1.0" encoding="UTF-8"?>
<svg width="104px" height="98px" viewBox="0 0 104 98" version="1.1" xmlns="http://www.w3.org/2000/svg" xmlns:xlink="http://www.w3.org/1999/xlink">
    <title>4040</title>
    <g id="缺省页" stroke="none" stroke-width="1" fill="none" fill-rule="evenodd">
        <g id="暂无权限备份" transform="translate(-667.000000, -460.000000)" fill-rule="nonzero">
            <g id="4040" transform="translate(667.430445, 460.721207)">
                <path d="M78.7524753,96.039604 C83.0306031,96.039604 86.4356436,92.6345635 86.4356436,88.3564356 L86.4356436,8.55625566 C86.4356436,4.27812788 89.8406841,0.873087275 94.118812,0.873087275 L22.5256526,0.873087275 C18.2475248,0.873087275 14.8424843,4.27812778 14.8424843,8.55625566 L14.8424843,96.1269127 L78.7524753,96.1269127 L78.7524753,96.039604 Z" id="路径" fill="#FFFFFF"></path>
                <g id="404-(1)" transform="translate(29.845054, 27.000000)" fill="#0067CC">
                    <path d="M40.90186,24.6221684 L40.90186,27.9667535 C42.231562,25.4182421 42.9849589,22.5733453 42.9849589,19.5674864 C42.9849589,8.76353217 33.3594896,0 21.4923114,0 C9.62546936,0 0,8.76353217 0,19.5674864 C0,19.7029097 0.00940907078,19.838333 0.00940907078,19.9740922 L7.72819943,11.2529008 L12.2109449,11.2529008 L5.57083616,20.388763 L7.72819943,20.388763 L7.72819943,18.0687574 L12.3413276,11.5237474 L12.3413276,28.1109137 L7.72819943,28.1109137 L7.72819943,24.6221684 L0.725169788,24.6221684 C2.72493128,31.438361 8.65835232,36.7894283 16.1822407,38.533801 C15.6983462,39.6427261 14.2943798,42.3185958 11.9599246,42.7927452 C9.06764644,43.3855161 19.8090977,42.9365695 27.4724417,38.3644379 C33.3594896,36.8149672 38.2048199,33.0385734 40.8366687,28.1109137 L36.2981409,28.1109137 L36.2981409,24.6221684 L28.5699415,24.6221684 L28.5699415,19.9821572 L36.2981409,11.2529008 L40.6693218,11.2529008 L34.1404416,20.388763 L36.2981409,20.388763 L36.2981409,17.8909933 L40.9109331,11.3711862 L40.9109331,24.6221684 L40.90186,24.6221684 Z M14.6102554,25.5704673 C14.3865411,25.0937717 14.2721896,24.5731049 14.2754892,24.0465354 L14.2754892,14.969816 C14.2754892,14.4277869 14.3871263,13.9200336 14.6102554,13.4458842 C14.8295619,12.9775543 15.1394075,12.5572699 15.5219262,12.2092647 C15.9029932,11.8624736 16.3586606,11.5828901 16.8795193,11.3799232 C17.4003781,11.1766203 17.9582009,11.0748008 18.5536601,11.0748008 L22.3481999,11.0748008 C22.942987,11.0748008 23.5011459,11.1766203 24.0220047,11.3799232 C24.5334543,11.5828901 24.9797126,11.8537366 25.3614517,12.1924628 L21.2416272,17.6708885 L21.2416272,16.6970507 C21.2456255,16.5030376 21.1638627,16.3171347 21.018162,16.1889614 C20.8692972,16.0535382 20.6834682,15.9859945 20.4603391,15.9859946 C20.2368739,15.9859946 20.0510449,16.0535382 19.9021801,16.1889614 C19.7566041,16.3171975 19.6749682,16.5030915 19.679051,16.6970507 L19.679051,19.7452504 L14.907985,26.0785566 C14.7948306,25.9177385 14.6952443,25.7477898 14.6102554,25.5704673 Z M26.6168893,24.0465354 C26.6168893,24.5885646 26.5053247,25.0963178 26.2818595,25.5704673 C26.0626524,26.0387681 25.7529226,26.4590504 25.3705247,26.8070867 C24.9894578,27.1538778 24.5337904,27.4334613 24.0129316,27.6367643 C23.4920729,27.8397312 22.93425,27.9415506 22.3387909,27.9415506 L18.544251,27.9415506 C17.949464,27.9415506 17.391305,27.8397311 16.8704463,27.6367643 C16.3495876,27.4334613 15.8939202,27.1538778 15.5125172,26.8067507 C15.3438326,26.650416 15.1882835,26.4804808 15.0474407,26.2986614 L19.6602328,20.1770591 L19.6602328,22.3193007 C19.6602328,22.5226036 19.7348333,22.6919667 19.883698,22.82739 C20.0322268,22.9628132 20.2183918,23.0303569 20.441521,23.0303568 C20.6646501,23.0303568 20.8508151,22.9628132 20.9993439,22.82739 C21.1450446,22.6992167 21.2268074,22.5133138 21.2228091,22.3193007 L21.2228091,18.1023612 L25.5287986,12.3789638 C25.8356012,12.6921511 26.0866215,13.0476792 26.2727865,13.4458842 C26.4959156,13.9196976 26.6074802,14.4277869 26.6074802,14.969816 L26.6074802,24.0465354 L26.6168893,24.0465354 Z" id="形状"></path>
                </g>
                <path d="M94.2061207,0.873087275 C89.9279929,0.873087275 86.5229524,4.27812778 86.5229524,8.55625566 L86.5229524,19.2079208 L101.889289,19.2079208 L101.889289,8.55625566 C101.889289,4.27812788 98.3969398,0.873087275 94.2061207,0.873087275 L94.2061207,0.873087275 Z M80.149415,95.9522952 L8.46894697,95.9522952 C4.19081919,95.9522952 0.785778578,92.5472547 0.785778578,88.2691269 L0.785778578,83.5544555 L72.4662467,83.5544555 L72.4662467,88.2691269 C72.4662467,92.5472547 75.9585959,95.9522952 80.149415,95.9522952 Z" id="形状" fill="#C7CAC7"></path>
                <path d="M94.2061207,0 L22.5256526,0 C17.8109811,0 13.9693969,3.84158419 13.969397,8.55625566 L13.969397,82.7686769 L0.873087377,82.7686769 C0.349234992,82.7686769 0,83.1179118 0,83.6417642 L0,88.3564356 C0,93.0711071 3.84158419,96.9126913 8.55625566,96.9126913 L14.4932494,96.9126913 C14.5805581,97 14.7551756,97 14.8424843,97 L78.839784,97 C79.1890189,97 79.6255626,97 79.9747976,96.9126913 L80.2367238,96.9126913 C80.4113413,96.9126913 80.49865,96.8253826 80.6732674,96.8253826 C84.5148515,96.039604 87.3960397,92.5472548 87.3960397,88.4437444 L87.3960397,19.9936993 L101.889289,19.9936993 C102.413141,19.9936993 102.762376,19.6444645 102.762376,19.1206121 L102.762376,8.55625566 C102.762376,3.84158419 98.9207921,0 94.2061207,0 Z M15.7155716,95.079208 L8.46894697,95.079208 C4.71467157,95.079208 1.65886596,92.0234023 1.65886596,88.2691269 L1.65886596,84.4275427 L71.5931594,84.4275427 L71.5931594,88.2691269 C71.5931594,91.0630064 72.9027904,93.5076508 74.9981999,95.079208 L15.7155716,95.079208 L15.7155716,95.079208 Z M85.5625563,88.3564356 C85.5625563,91.7614761 83.1179119,94.5553556 79.8001801,95.079208 C76.2205221,94.9045905 73.2520253,91.9360936 73.2520253,88.2691269 L73.2520253,83.5544555 C73.2520253,83.0306031 72.9027904,82.6813682 72.378938,82.6813682 L15.7155716,82.6813682 L15.7155716,8.46894686 C15.7155716,4.71467147 18.7713772,1.65886585 22.5256526,1.65886585 L89.0549055,1.65886585 L88.9675968,1.74617465 C88.7929793,1.83348335 88.7056706,2.00810084 88.5310531,2.09540954 C88.4437444,2.18271824 88.3564356,2.27002704 88.2691269,2.27002704 L87.7452746,2.79387942 C87.7452746,2.88118812 87.6579659,2.88118812 87.6579659,2.96849682 C87.4833484,3.23042301 87.308731,3.40504051 87.1341135,3.6669667 C87.0468048,3.75427539 87.0468048,3.84158419 86.959496,3.92889289 C86.8721873,4.10351039 86.6975698,4.27812778 86.6102611,4.45274528 C86.5229524,4.54005397 86.5229524,4.62736277 86.4356436,4.71467147 L86.1737174,5.23852385 C86.0864087,5.32583255 86.0864087,5.50045005 86.0864087,5.58775874 C85.9991,5.76237624 85.9991,5.93699363 85.9117912,6.11161113 C85.9117912,6.19891983 85.8244825,6.37353732 85.8244825,6.46084612 C85.7371738,6.63546362 85.7371738,6.89738981 85.7371738,7.0720072 C85.7371738,7.1593159 85.7371738,7.2466247 85.649865,7.3339334 C85.649865,7.68316829 85.5625563,7.94509448 85.5625563,8.29432947 L85.5625563,88.3564356 Z M101.016202,18.2475248 L87.3960397,18.2475248 L87.3960397,8.55625566 C87.3960397,4.80198027 90.4518453,1.74617465 94.2061207,1.74617465 C97.9603961,1.74617465 101.016202,4.80198027 101.016202,8.55625566 L101.016202,18.2475248 L101.016202,18.2475248 Z" id="形状" fill="#000000"></path>
                <g id="Z·X·Y" transform="translate(29.944331, 10.323142)" fill="#333333">
                    <polygon id="路径" points="7.11972851 8.37675728 0 8.37675728 0 7.29488826 5.11054319 1.18490417 0.443051123 1.18490417 0.443051123 0 6.94456876 0 6.94456876 1.11277956 1.76190098 7.20215663 7.11972851 7.20215663"></polygon>
                    <polygon id="路径" points="13.2812302 3.43107032 13.2812302 4.91477641 11.8181311 4.91477641 11.8181311 3.43107032"></polygon>
                    <path d="M22.8016776,4.13170931 L25.9648565,8.37675728 L24.1617415,8.37675728 C22.9871408,6.59768378 22.3242814,5.59480837 22.1731632,5.36813105 C22.070128,5.19640581 21.9636584,5.02468056 21.8537542,4.85295532 C21.7438501,5.02468056 21.6305114,5.19640581 21.5137382,5.36813105 C20.8405753,6.37100646 20.1674124,7.37388187 19.4942494,8.37675728 L17.7529555,8.37675728 L20.9161344,4.12140579 L18.0517574,0 L19.7724443,0 C20.7615817,1.57987222 21.3317095,2.49345051 21.4828277,2.74073485 C21.6133389,2.96054316 21.7438501,3.17691697 21.8743613,3.38985627 C22.0186105,3.16317895 22.1594252,2.93650163 22.2968053,2.70982431 C22.4341855,2.47627798 22.9871408,1.57300321 23.9556712,0 L25.6763581,0 L22.8016776,4.13170931 Z" id="路径"></path>
                    <polygon id="路径" points="31.8996809 3.43107032 31.8996809 4.91477641 30.4365818 4.91477641 30.4365818 3.43107032"></polygon>
                    <path d="M36.3611026,0 L37.9890579,0 C38.9095052,1.40127797 39.5964062,2.45223645 40.0497608,3.15287543 C40.2764381,3.51006394 40.4138183,3.74017576 40.4619014,3.8432109 L40.4722049,3.8432109 C40.6095851,3.62340259 40.7469653,3.40015978 40.8843455,3.17348246 C40.9599046,3.0567093 41.6330675,1.99888181 42.9038343,0 L44.5420931,0 L41.1213263,4.93538344 L41.1213263,8.37675728 L39.6994413,8.37675728 L39.6994413,4.95599047 L36.3611026,0 Z" id="路径"></path>
                </g>
            </g>
        </g>
    </g>
</svg>