<?xml version="1.0" encoding="UTF-8"?>
<svg width="45px" height="44px" viewBox="0 0 45 44" version="1.1" xmlns="http://www.w3.org/2000/svg" xmlns:xlink="http://www.w3.org/1999/xlink">
    <title>编组</title>
    <g id="页面-1" stroke="none" stroke-width="1" fill="none" fill-rule="evenodd">
        <g id="忘记密码备份-3" transform="translate(-839.000000, -311.000000)" fill-rule="nonzero">
            <g id="编组" transform="translate(839.000000, 311.000000)">
                <g id="morentouxiang" fill="#6FBB32">
                    <path d="M0,22 C0,34.1502544 9.84973261,43.999987 22,43.999987 C34.1502545,43.999987 43.9999871,34.1502544 43.9999871,22 C43.9999871,9.84973259 34.1502545,-2.07683115e-08 22,-2.07683115e-08 C9.84973261,-2.07683115e-08 0,9.84973259 0,22 Z" id="路径"></path>
                </g>
                <g id="duigou" transform="translate(10.388889, 9.166667)" fill="#FFFFFF">
                    <path d="M11.8580812,25.6666667 C15.0008797,21.2791918 18.2525767,17.3845492 20.668965,14.6429407 C22.0955127,13.0244913 23.4353341,11.5524315 24.7177187,10.2281659 C25.8783172,9.02960275 27.029016,7.93061265 28.1351653,6.89658057 C30.0206804,5.13370201 32.2249537,3.18089442 33.6111111,2.34454537 L31.8408211,0 C29.2742068,1.60417032 26.8036036,3.31759886 24.8960042,4.63425682 C23.7843777,5.40163919 22.7528289,6.13920524 21.7806793,6.84171738 C20.817668,7.53770445 19.8233755,8.302073 18.7750145,9.10386556 C16.954903,10.4958104 14.6164543,12.3669231 12.3520495,14.3004481 L6.67005167,8.93933452 L0,14.1907802 L11.8580812,25.6666667 Z" id="路径"></path>
                </g>
            </g>
        </g>
    </g>
</svg>