<?xml version="1.0" encoding="UTF-8"?>
<svg width="15px" height="14px" viewBox="0 0 15 14" version="1.1" xmlns="http://www.w3.org/2000/svg" xmlns:xlink="http://www.w3.org/1999/xlink">
    <title>数据icon</title>
    <g id="页面-1" stroke="none" stroke-width="1" fill="none" fill-rule="evenodd" opacity="0.5">
        <g id="体检管理-技安查看" transform="translate(-458.000000, -488.000000)" fill="#333333">
            <g id="编组-11" transform="translate(278.500000, 452.000000)">
                <g id="数据icon" transform="translate(179.800000, 36.000000)">
                    <rect id="矩形" stroke="#333333" opacity="0" x="0.5" y="0.5" width="13" height="13"></rect>
                    <g id="shuju" transform="translate(0.000000, 1.066858)" fill-rule="nonzero">
                        <path d="M0,12.379583 L0,8.00143781 C0,7.69949676 0.24155284,7.45794393 0.543493889,7.45794393 C0.845434939,7.45794393 1.08698778,7.69949676 1.08698778,8.00143781 L1.08698778,12.3896477 C1.08698778,12.6915888 0.845434939,12.9331416 0.543493889,12.9331416 C0.24155284,12.9230769 0,12.6815241 0,12.379583 Z M10.3263839,12.379583 L10.3263839,7.19626168 C10.3263839,6.89432063 10.5679367,6.65276779 10.8698778,6.65276779 C11.1718188,6.65276779 11.4133717,6.89432063 11.4133717,7.19626168 L11.4133717,12.3896477 C11.4133717,12.6915888 11.1718188,12.9331416 10.8698778,12.9331416 C10.5679367,12.9230769 10.3263839,12.6815241 10.3263839,12.379583 L10.3263839,12.379583 Z M12.9130122,12.379583 L12.9130122,10.6585191 C12.9130122,10.356578 13.1545651,10.1150252 13.4565061,10.1150252 C13.7584472,10.1150252 14,10.356578 14,10.6585191 L14,12.379583 C14,12.6815241 13.7584472,12.9230769 13.4565061,12.9230769 C13.1545651,12.9230769 12.9130122,12.6815241 12.9130122,12.379583 Z M2.58662832,12.3997124 L2.58662832,3.00934579 C2.58662832,2.71746945 2.81811646,2.48598131 3.10999281,2.48598131 L3.15025162,2.48598131 C3.44212797,2.48598131 3.6736161,2.71746945 3.6736161,3.00934579 L3.6736161,12.3997124 C3.6736161,12.6915888 3.44212797,12.9230769 3.15025162,12.9230769 L3.10999281,12.9230769 C2.81811646,12.9230769 2.58662832,12.6915888 2.58662832,12.3997124 Z M7.74982027,12.379583 L7.74982027,0.543493889 C7.74982027,0.24155284 7.99137311,0 8.29331416,0 C8.59525521,0 8.83680805,0.24155284 8.83680805,0.543493889 L8.83680805,12.379583 C8.83680805,12.6815241 8.59525521,12.9230769 8.29331416,12.9230769 C7.99137311,12.9230769 7.74982027,12.6815241 7.74982027,12.379583 Z M5.16319195,12.379583 L5.16319195,5.25377426 C5.16319195,4.95183321 5.40474479,4.71028037 5.70668584,4.71028037 C6.00862689,4.71028037 6.25017973,4.95183321 6.25017973,5.25377426 L6.25017973,12.379583 C6.25017973,12.6815241 6.00862689,12.9230769 5.70668584,12.9230769 C5.40474479,12.9230769 5.16319195,12.6815241 5.16319195,12.379583 Z" id="形状"></path>
                    </g>
                </g>
            </g>
        </g>
    </g>
</svg>