<?xml version="1.0" encoding="UTF-8"?>
<svg width="43px" height="43px" viewBox="0 0 43 43" version="1.1" xmlns="http://www.w3.org/2000/svg" xmlns:xlink="http://www.w3.org/1999/xlink">
    <title>废水</title>
    <defs>
        <filter x="-27.3%" y="-27.3%" width="154.5%" height="154.5%" filterUnits="objectBoundingBox" id="filter-1">
            <feOffset dx="0" dy="2" in="SourceAlpha" result="shadowOffsetOuter1"></feOffset>
            <feGaussianBlur stdDeviation="2" in="shadowOffsetOuter1" result="shadowBlurOuter1"></feGaussianBlur>
            <feColorMatrix values="0 0 0 0 0   0 0 0 0 0.103326868   0 0 0 0 0.33257924  0 0 0 0.3 0" type="matrix" in="shadowBlurOuter1" result="shadowMatrixOuter1"></feColorMatrix>
            <feMerge>
                <feMergeNode in="shadowMatrixOuter1"></feMergeNode>
                <feMergeNode in="SourceGraphic"></feMergeNode>
            </feMerge>
        </filter>
    </defs>
    <g id="页面-1" stroke="none" stroke-width="1" fill="none" fill-rule="evenodd">
        <g id="B9" transform="translate(-616.000000, -157.000000)">
            <g id="废水站排口" filter="url(#filter-1)" transform="translate(615.500000, 156.750000)">
                <g id="废水" transform="translate(10.000000, 10.000000)">
                    <rect id="矩形" stroke="#979797" fill="#D8D8D8" opacity="0" x="0.5" y="0.5" width="23" height="23"></rect>
                    <g id="wushuifeishui" transform="translate(2.000000, 3.052080)" fill="#D24416" fill-rule="nonzero">
                        <path d="M12.8794125,11.3931647 C12.506323,11.393041 12.2038008,11.0908204 12.203305,10.7177312 L12.203305,1.55578882 C12.2044195,1.18317492 12.506797,0.881703549 12.8794125,0.881703549 L20,0.881703549 L20,1.55578882 L20,10.7177312 L20,11.3931647 L12.8794125,11.3931647 Z" id="形状"></path>
                        <polygon id="形状" points="9.41775993 12.2737447 9.41775993 11.5983113 9.41775993 0.67543345 9.41775993 0 13.2353295 0 13.2353295 0.67543345 13.2353295 11.5983113 13.2353295 12.2737447"></polygon>
                        <path d="M3.33301683,15.6980979 L2.5378209,15.6951769 C2.56029041,9.88748285 3.78240703,5.78994314 6.16799481,3.51670289 C8.0318406,1.73914001 9.9091681,1.79553848 9.99297937,1.80250404 L9.96152206,2.59612709 C9.89411353,2.59343074 8.31270948,2.55613137 6.69512951,4.11304366 C5.17551659,5.57288767 3.3620025,8.76850128 3.33301683,15.6980979 Z M9.58930594,2.37073479 L9.58960809,10.5348585 C9.69197399,10.4841528 9.77402332,10.4628046 9.82310988,10.4537145 L9.9128209,10.9537928 L9.89411353,10.8458074 L9.9871373,11.2320583 C9.97590254,11.2356534 8.88141275,11.6261735 8.90590452,15.4745263 L8.1095851,15.479919 L8.1088209,15.3317928 L6.29959776,15.3321391 L4.59568926,14.8894759 L3.11479836,15.3321391 C2.83302839,13.43558 3.11885375,11.0095993 3.97227443,8.05419679 C4.8256951,5.09879433 6.69803894,3.204307 9.58930594,2.37073479 L9.58930594,2.37073479 Z" id="形状"></path>
                        <path d="M2.51108219,15.8553845 C1.75700547,15.8553845 0.980234533,15.6178818 0.195149877,15.1460221 C0.0724011893,15.0733925 -0.00203484949,14.9405733 4.23656571e-05,14.7979626 C0.00220790549,14.655352 0.0805615908,14.5248055 0.205416264,14.4558592 C0.330270938,14.3869128 0.482492184,14.3901327 0.604319625,14.4642972 C1.39839208,14.9411002 2.16460234,15.1332145 2.88227847,15.0350227 C3.2062888,14.9900837 3.38694364,14.9064971 3.59591009,14.8103276 C3.83880547,14.6979801 4.11495575,14.5678816 4.59175874,14.5090115 C5.34606018,14.415089 5.8064604,14.5934969 6.24955913,14.7662874 C6.61401456,14.90807 6.95712397,15.0419883 7.52605195,15.0464822 C8.05610766,15.0406401 8.26574819,14.9494139 8.55605425,14.8217871 C8.88028928,14.6784316 9.24766575,14.5162018 9.96354431,14.4935075 C10.7093073,14.471038 11.1319588,14.6263023 11.5006834,14.7631417 C11.8467139,14.8921167 12.1455584,15.0062618 12.7407756,14.9923307 C13.2816167,14.9826688 13.5483298,14.8829041 13.8570609,14.7676356 C14.216573,14.6328185 14.6268663,14.4791271 15.407457,14.5083374 C15.9624539,14.5272118 16.5504809,14.6263023 17.5249836,14.7905545 C17.9968433,14.8700965 18.3869139,14.9458188 18.6603679,15.0008691 C18.8742138,15.0456741 19.0118727,15.2545978 18.9686674,15.4687727 C18.9254621,15.6829475 18.7175731,15.8221642 18.5030813,15.780561 C18.2361435,15.7261848 17.8539372,15.6520354 17.3935369,15.5747403 C16.4511657,15.4161056 15.8824624,15.3201608 15.3807183,15.3026346 C14.753819,15.2851084 14.4659846,15.3880187 14.1356828,15.5122751 C13.805381,15.6365315 13.4321625,15.7749437 12.7542574,15.787976 C12.0111907,15.7956156 11.5907862,15.645744 11.2229603,15.5091294 C10.8778286,15.3806038 10.5785348,15.2711773 9.9871373,15.2884788 C9.42539957,15.3064544 9.15891119,15.4232958 8.87624476,15.5491251 C8.5587506,15.6884361 8.19294698,15.8297693 7.51886172,15.8421275 C6.80478071,15.8367348 6.35606462,15.6623714 5.95992716,15.5077812 C5.56378971,15.353191 5.24944128,15.2314062 4.68770355,15.2985901 C4.33605574,15.3435291 4.14843532,15.429812 3.93070579,15.5315989 C3.6970229,15.640576 3.43210738,15.7641583 2.98833457,15.8250507 C2.83009628,15.8457047 2.67066208,15.8558382 2.51108219,15.8553845 L2.51108219,15.8553845 Z M2.48973616,17.8958406 C1.78666522,17.8958406 1.06045068,17.6857507 0.327944669,17.2693907 C0.201351878,17.2028571 0.120259696,17.0734466 0.115593174,16.9305107 C0.110926652,16.7875748 0.183405247,16.6531505 0.305388757,16.5785015 C0.427372267,16.5038524 0.580053991,16.5004876 0.705207724,16.5696902 L0.720711691,16.5784533 C1.3932241,16.960435 2.04483986,17.1338996 2.66117851,17.095252 C3.07214582,17.0691874 3.33683665,16.9626819 3.64354546,16.8397737 C4.00463046,16.694396 4.41380023,16.5299192 5.05418123,16.5252006 C5.61434611,16.5159881 5.88555308,16.6393457 6.15788354,16.7528167 C6.37606248,16.8426947 6.58233256,16.9289777 6.99464807,16.9705462 C7.6336809,17.0330115 7.98038543,16.9096539 8.38461191,16.765849 C8.78883839,16.6220442 9.25350784,16.4564439 9.98107053,16.4697009 C10.7789628,16.4798122 11.2029624,16.6872057 11.5433755,16.8541542 C11.8523313,17.0051493 12.0934291,17.1215413 12.6282034,17.0941285 C13.1946597,17.0610984 13.5254109,16.891903 13.8759353,16.7107987 C14.3120684,16.4861036 14.7639303,16.2562405 15.5326122,16.3625213 C15.8471853,16.4074603 16.0646902,16.4867777 16.2936545,16.5721618 C16.6422417,16.7079501 17.0027087,16.8110051 17.3703933,16.8799941 C17.8038378,16.9651613 18.2429476,17.0184072 18.6841855,17.0393029 C18.9034918,17.0496108 19.072962,17.235676 19.0627968,17.4549889 C19.0484969,17.6723517 18.8646176,17.8393431 18.6468862,17.8327013 C18.1666388,17.80999 17.6887037,17.7520881 17.2169266,17.6594614 C16.8069218,17.5823658 16.4048368,17.4678927 16.0157066,17.3174755 C15.8049426,17.2390569 15.6523747,17.1826584 15.4231857,17.1500776 C14.9048141,17.0813209 14.6246193,17.2208566 14.2394919,17.4183636 C13.8689697,17.6084556 13.4081201,17.8452842 12.6740412,17.8879763 C11.9325474,17.9329153 11.5411286,17.7385541 11.1939746,17.5684599 C10.8827719,17.416566 10.5906683,17.2727611 9.97095925,17.2651215 C9.38383098,17.2617511 9.02431883,17.3833111 8.65132498,17.5161059 C8.19811498,17.6772123 7.7300751,17.843262 6.91533069,17.7632705 C6.38549967,17.7100178 6.09002562,17.5868849 5.8522982,17.4877943 C5.61457078,17.3887038 5.42762449,17.3024209 5.05867513,17.3217447 C4.5699633,17.3242163 4.27808438,17.4417318 3.93969359,17.5765489 C3.61613265,17.7064227 3.24965497,17.853598 2.71151021,17.8877516 C2.63803492,17.893369 2.56388553,17.8958406 2.48973616,17.8958406 L2.48973616,17.8958406 Z" id="形状"></path>
                    </g>
                </g>
            </g>
        </g>
    </g>
</svg>