<?xml version="1.0" encoding="UTF-8"?>
<svg width="24px" height="25px" viewBox="0 0 24 25" version="1.1" xmlns="http://www.w3.org/2000/svg" xmlns:xlink="http://www.w3.org/1999/xlink">
    <title>化学有害物</title>
    <g id="页面-1" stroke="none" stroke-width="1" fill="none" fill-rule="evenodd">
        <g id="B9" transform="translate(-474.000000, -326.000000)">
            <g id="coming备份-2" transform="translate(464.000000, 316.250000)">
                <g id="化学有害物" transform="translate(10.000000, 10.000000)">
                    <rect id="矩形" stroke="#979797" fill="#D8D8D8" opacity="0" x="0.5" y="0.5" width="23" height="23"></rect>
                    <g id="huaxueshiyan" transform="translate(2.000000, 2.002656)" fill="#D24416" fill-rule="nonzero">
                        <path d="M11.8209368,1.8717065 C12.235911,1.8717065 12.6338311,2.03682512 12.9268911,2.33062688 L12.9268911,2.33062688 L17.7506014,7.16058555 C18.0444032,7.45364552 18.2095218,7.85156562 18.2095218,8.26653987 C18.2095218,8.68151411 18.0444032,9.07943421 17.7506014,9.37249418 L17.7506014,9.37249418 L16.8758353,10.2535086 C16.3481521,10.7900961 15.5128798,10.8741486 14.8888665,10.4534552 L14.8888665,10.4534552 L11.5522586,18.81372 C11.3194298,19.3997077 10.8075859,19.8293748 10.1901228,19.9571643 C10.0646866,19.9826412 9.93697078,19.9952034 9.80897465,19.9946715 L9.80897465,19.9946715 L9.75898803,19.9946715 C9.28812295,19.9749786 8.84194626,19.7786609 8.50932214,19.4448013 L8.50932214,19.4448013 L0.555198746,11.5906511 C0.113946607,11.1534604 -0.0820747286,10.5260752 0.0317933927,9.91544176 C0.145661514,9.30480831 0.554629339,8.79023869 1.12379671,8.54146637 L1.12379671,8.54146637 L9.60902812,5.14237514 C9.22904167,4.52624964 9.32213591,3.72977665 9.83396798,3.21788968 L9.83396798,3.21788968 L10.7149824,2.33062688 C11.0080424,2.03682512 11.4059625,1.8717065 11.8209368,1.8717065 Z M9.71730631,10.1162336 C9.13359613,10.3580142 8.75300698,10.9276062 8.75300698,11.5594095 C8.75300698,12.4221238 9.45237508,13.1214919 10.3150893,13.1214919 C10.9468927,13.1214919 11.5164846,12.7409027 11.7582653,12.1571925 C12.0000459,11.5734824 11.8664008,10.9016029 11.4196484,10.4548505 C10.972896,10.008098 10.3010165,9.8744529 9.71730631,10.1162336 Z M6.2536752,9.37249418 C5.56350379,9.37249418 5.00400931,9.93198866 5.00400931,10.6221601 C5.00400931,11.3123315 5.56350379,11.871826 6.2536752,11.871826 C6.94384661,11.871826 7.50334109,11.3123315 7.50334109,10.6221601 C7.50334109,9.93198866 6.94384661,9.37249418 6.2536752,9.37249418 Z" id="形状结合"></path>
                        <path d="M18.4379176,0 C17.8061143,0 17.2365224,0.380589149 16.9947417,0.964299323 C16.752961,1.5480095 16.8866062,2.21988897 17.3333586,2.6666414 C17.780111,3.11339382 18.4519905,3.24703896 19.0357007,3.00525829 C19.6194109,2.76347762 20,2.1938857 20,1.56208236 C20,0.699368096 19.3006319,0 18.4379176,0 Z" id="路径"></path>
                        <path d="M7.50334109,14.3711577 C7.50334109,14.5943891 7.62243357,14.8006633 7.81575756,14.912279 C8.00908155,15.0238946 8.24726653,15.0238946 8.44059052,14.912279 C8.63391451,14.8006633 8.75300698,14.5943891 8.75300698,14.3711577 C8.75300698,14.1479264 8.63391451,13.9416522 8.44059052,13.8300365 C8.24726653,13.7184209 8.00908155,13.7184209 7.81575756,13.8300365 C7.62243357,13.9416522 7.50334109,14.1479264 7.50334109,14.3711577 L7.50334109,14.3711577 Z" id="路径"></path>
                        <path d="M17.5006682,4.99866356 C17.5006682,5.34374927 17.7804155,5.62349651 18.1255012,5.62349651 C18.4705869,5.62349651 18.7503341,5.34374927 18.7503341,4.99866356 C18.7503341,4.65357786 18.4705869,4.37383062 18.1255012,4.37383062 C17.7804155,4.37383062 17.5006682,4.65357786 17.5006682,4.99866356 L17.5006682,4.99866356 Z" id="路径"></path>
                    </g>
                </g>
            </g>
        </g>
    </g>
</svg>