<svg id="图层_1" data-name="图层 1" xmlns="http://www.w3.org/2000/svg" viewBox="0 0 46 46"><defs><style>.cls-1,.cls-2{fill:#fff;}.cls-2{opacity:0.5;isolation:isolate;}.cls-3{fill:#0067cc;}</style></defs><path class="cls-1" d="M19.9,23a5.2,5.2,0,1,0-5.2-5.2A5.16,5.16,0,0,0,19.9,23Zm1.9,1H17.9a7.38,7.38,0,0,0-7.4,7.4,3,3,0,0,0,3,3H26.3a3,3,0,0,0,3-3A7.6,7.6,0,0,0,21.8,24Z"/><path class="cls-2" d="M27.4,19.9a4.4,4.4,0,1,0,0-8.8A4.35,4.35,0,0,0,23,15.4,4.53,4.53,0,0,0,27.4,19.9Zm1.8,1H25.7a6.36,6.36,0,0,0-6.4,6.3,2.58,2.58,0,0,0,2.6,2.6H33a2.58,2.58,0,0,0,2.6-2.6A6.42,6.42,0,0,0,29.2,20.9Z"/><path class="cls-2" d="M12.8,18.6H27.5L26,14.2a3.06,3.06,0,0,0-2.6-1.9H12.6a1.23,1.23,0,0,0-1.3,1.5v8.4a1.58,1.58,0,0,0,1.6,1.6V18.6Z"/><path class="cls-1" d="M32.6,15.4H11.3V31.5a2.11,2.11,0,0,0,2.1,2.1H32.7a2.11,2.11,0,0,0,2.1-2.1v-14A2.27,2.27,0,0,0,32.6,15.4ZM29,27.9H17a1,1,0,0,1,0-2H29a1,1,0,0,1,1,1A.94.94,0,0,1,29,27.9Zm0-5.2H17a1,1,0,0,1,0-2H29a1,1,0,0,1,1,1A.94.94,0,0,1,29,22.7Z"/><path class="cls-2" d="M17,22.7H29a1,1,0,0,0,0-2H17a1,1,0,0,0-1,1A.94.94,0,0,0,17,22.7Zm12,3.2H17a1,1,0,0,0-1,1,1.08,1.08,0,0,0,1,1H29a1,1,0,0,0,0-2Z"/><path class="cls-3" d="M0,0H46V46H0Z"/><path class="cls-2" d="M34.2,16,24.1,10.5a.35.35,0,0,0-.1-.2.84.84,0,0,0-1.1-.4h-.1a.8.8,0,0,0-1.2.4.76.76,0,0,0-.1.4l-10,5.6a.86.86,0,0,0-.3,1.2.89.89,0,0,0,1.2.4L23.1,12l10.3,5.6a.8.8,0,0,0,1.2-.4A.87.87,0,0,0,34.2,16Z"/><path class="cls-1" d="M33.4,15.2H12.6a2.11,2.11,0,0,0-2.1,2.1V31.4a2.11,2.11,0,0,0,2.1,2.1H33.4a2.11,2.11,0,0,0,2.1-2.1V17.3A2.05,2.05,0,0,0,33.4,15.2ZM16.8,29.8h-1a1,1,0,0,1,0-2h1a1,1,0,0,1,1,1A1.08,1.08,0,0,1,16.8,29.8Zm4.1-4.2H15.7a1,1,0,1,1,0-2h5.2a1,1,0,0,1,1,1A.94.94,0,0,1,20.9,25.6Zm5.2-4.2H15.7a1,1,0,1,1,0-2H26.1a1,1,0,0,1,1,1C27.2,21,26.7,21.4,26.1,21.4Z"/></svg>