<?xml version="1.0" encoding="UTF-8"?>
<svg width="98px" height="66px" viewBox="0 0 98 66" version="1.1" xmlns="http://www.w3.org/2000/svg" xmlns:xlink="http://www.w3.org/1999/xlink">
    <title>图2</title>
    <g id="概览页" stroke="none" stroke-width="1" fill="none" fill-rule="evenodd">
        <g id="概览" transform="translate(-1451.000000, -962.000000)">
            <g id="图2" transform="translate(1451.119317, 962.687919)">
                <rect id="矩形" fill="#F6F9FF" x="-4.12114787e-13" y="-1.42108547e-14" width="96.6469334" height="64.431289"></rect>
                <path d="M44.5080821,32.9464137 C47.0966405,32.9464137 49.4303127,31.3871038 50.4209111,28.9955877 C51.4115095,26.6040716 50.8639527,23.8513175 49.0335655,22.0209303 C47.2031783,20.1905431 44.4504242,19.6429863 42.0589081,20.6335847 C39.667392,21.6241831 38.1080821,23.9578553 38.1080821,26.5464137 C38.094841,28.2478239 38.7648719,29.8833937 39.967987,31.0865088 C41.1711022,32.2896239 42.8066719,32.9596549 44.5080821,32.9464137 L44.5080821,32.9464137 Z M46.8465436,34.1771494 L42.0465436,34.1771494 C39.6290282,34.1706225 37.3086374,35.1280733 35.5991895,36.8375211 C33.8897417,38.546969 32.9322909,40.8673598 32.9388178,43.2848753 C32.9388178,45.3240805 34.5919538,46.9771829 36.631159,46.9771829 L52.3850052,46.9771829 C54.4242104,46.9771829 56.0773129,45.3240805 56.0773129,43.2848753 C55.9455172,38.2626964 51.870039,34.241558 46.8465436,34.1771494 Z" id="形状" fill="#FFFFFF" fill-rule="nonzero"></path>
                <path d="M53.7388513,29.1310291 C56.7296857,29.1310291 59.154236,26.7064788 59.154236,23.7156445 C59.154236,20.7248101 56.7296857,18.3002599 53.7388513,18.3002599 C52.3188954,18.2838447 50.950586,18.8322257 49.9349838,19.8247461 C48.9193816,20.8172664 48.3396943,22.1726094 48.3234667,23.5925676 C48.3421221,26.5960068 50.7365895,29.044894 53.7388513,29.1310291 L53.7388513,29.1310291 Z M55.954236,30.3617983 L51.6465436,30.3617983 C47.3329285,30.334477 43.8102293,33.802134 43.7695243,38.1156445 C43.763,38.9663496 44.0980155,39.7841345 44.699573,40.385692 C45.3011306,40.9872496 46.1189155,41.3222651 46.9696206,41.3157408 L60.631159,41.3157408 C61.4818641,41.3222651 62.299649,40.9872496 62.9012066,40.385692 C63.5027641,39.7841345 63.8377796,38.9663496 63.8312553,38.1156445 C63.7508541,33.8190887 60.2515235,30.3744352 55.954236,30.3617983 L55.954236,30.3617983 Z" id="形状" fill="#FFFFFF" fill-rule="nonzero" opacity="0.5"></path>
                <path d="M35.7696206,27.5310291 L53.8619283,27.5310291 L52.0157744,22.1156445 C51.4786843,20.7925405 50.2395064,19.8869875 48.8157744,19.7771829 L35.5234667,19.7771829 C35.0424334,19.7375729 34.5713443,19.9297167 34.2552346,20.2944587 C33.9391249,20.6592006 33.8158886,21.1528169 33.9234667,21.6233368 L33.9234667,31.9617983 C33.916787,32.48609 34.1221133,32.990862 34.4928736,33.3616222 C34.8636339,33.7323825 35.3684058,33.9377088 35.8926975,33.9310291 L35.8926975,27.5310291 L35.7696206,27.5310291 Z" id="路径" fill="#FFFFFF" fill-rule="nonzero" opacity="0.5"></path>
                <path d="M60.1388513,23.5925676 L33.9234667,23.5925676 L33.9234667,43.4079522 C33.9302027,44.8325964 35.0834379,45.9858315 36.5080821,45.9925676 L60.2619283,45.9925676 C61.6865724,45.9858315 62.8398076,44.8325964 62.8465436,43.4079522 L62.8465436,26.1771829 C62.7398518,24.7489835 61.5704666,23.6327521 60.1388513,23.5925676 Z M55.7080821,38.9771829 L40.9388513,38.9771829 C40.2591163,38.9771829 39.7080821,38.4261488 39.7080821,37.7464137 C39.7080821,37.0666786 40.2591163,36.5156445 40.9388513,36.5156445 L55.7080821,36.5156445 C56.3878172,36.5156445 56.9388513,37.0666786 56.9388513,37.7464137 C56.9608599,38.0790943 56.8382747,38.4050965 56.6025198,38.6408514 C56.3667649,38.8766063 56.0407627,38.9991915 55.7080821,38.9771829 L55.7080821,38.9771829 Z M55.7080821,32.5771829 L40.9388513,32.5771829 C40.2591163,32.5771829 39.7080821,32.0261488 39.7080821,31.3464137 C39.7080821,30.6666786 40.2591163,30.1156445 40.9388513,30.1156445 L55.7080821,30.1156445 C56.3878172,30.1156445 56.9388513,30.6666786 56.9388513,31.3464137 C56.9608599,31.6790943 56.8382747,32.0050965 56.6025198,32.2408514 C56.3667649,32.4766063 56.0407627,32.5991915 55.7080821,32.5771829 L55.7080821,32.5771829 Z" id="形状" fill="#FFFFFF" fill-rule="nonzero"></path>
                <path d="M40.9388513,32.5771829 L55.7080821,32.5771829 C56.3878172,32.5771829 56.9388513,32.0261488 56.9388513,31.3464137 C56.9388513,30.6666786 56.3878172,30.1156445 55.7080821,30.1156445 L40.9388513,30.1156445 C40.2591163,30.1156445 39.7080821,30.6666786 39.7080821,31.3464137 C39.6860736,31.6790943 39.8086588,32.0050965 40.0444137,32.2408514 C40.2801686,32.4766063 40.6061708,32.5991915 40.9388513,32.5771829 L40.9388513,32.5771829 Z M55.7080821,36.5156445 L40.9388513,36.5156445 C40.2591163,36.5156445 39.7080821,37.0666786 39.7080821,37.7464137 C39.7553426,38.4055817 40.2796834,38.9299224 40.9388513,38.9771829 L55.7080821,38.9771829 C56.3878172,38.9771829 56.9388513,38.4261488 56.9388513,37.7464137 C56.9388513,37.0666786 56.3878172,36.5156445 55.7080821,36.5156445 L55.7080821,36.5156445 Z" id="形状" fill="#FFFFFF" fill-rule="nonzero" opacity="0.5"></path>
                <path d="M49.407384,16.8959698 L48.1766148,16.8959698 L34.1696206,24.7002599 C33.9209977,24.843685 33.7412823,25.0819308 33.6716682,25.3603872 C33.6020541,25.6388435 33.6485109,25.9336324 33.8003898,26.1771829 C33.9298525,26.4393689 34.1587692,26.6389097 34.4361713,26.731377 C34.7135733,26.8238444 35.0164311,26.8015618 35.2773129,26.6694906 L48.1766148,19.3575083 L49.407384,19.3575083 L61.1234667,26.3002599 C61.3765147,26.469685 61.6937191,26.512485 61.982621,26.4161843 C62.271523,26.3198837 62.4996066,26.0953211 62.6003898,25.8079522 C62.7395768,25.5483392 62.765665,25.2428524 62.6725136,24.9633981 C62.5793621,24.6839438 62.3751995,24.4552072 62.1080821,24.3310291 L49.407384,16.8959698 Z" id="路径" fill-opacity="0.303288" fill="#0067CC" fill-rule="nonzero"></path>
                <path d="M61.1234667,23.3464137 L35.5234667,23.3464137 C34.0988225,23.3531497 32.9455874,24.5063849 32.9388513,25.9310291 L32.9388513,43.2848753 C32.9455874,44.7095194 34.0988225,45.8627546 35.5234667,45.8694906 L61.1234667,45.8694906 C62.5481109,45.8627546 63.7013461,44.7095194 63.7080821,43.2848753 L63.7080821,25.9310291 C63.7251411,25.2404581 63.4583159,24.5730928 62.9698595,24.0846364 C62.481403,23.5961799 61.8140378,23.3293547 61.1234667,23.3464137 Z M40.6926975,41.3156445 L39.4619283,41.3156445 C38.7821932,41.3156445 38.231159,40.7646103 38.231159,40.0848753 C38.231159,39.4051402 38.7821932,38.854106 39.4619283,38.854106 L40.6926975,38.854106 C41.3724326,38.854106 41.9234667,39.4051402 41.9234667,40.0848753 C41.8762062,40.7440432 41.3518654,41.2683839 40.6926975,41.3156445 L40.6926975,41.3156445 Z M45.7388513,36.1464137 L39.3388513,36.1464137 C38.6591163,36.1464137 38.1080821,35.5953796 38.1080821,34.9156445 C38.1080821,34.2359094 38.6591163,33.6848753 39.3388513,33.6848753 L45.7388513,33.6848753 C46.4185864,33.6848753 46.9696206,34.2359094 46.9696206,34.9156445 C46.9916291,35.248325 46.8690439,35.5743273 46.633289,35.8100821 C46.3975341,36.045837 46.0715319,36.1684223 45.7388513,36.1464137 L45.7388513,36.1464137 Z M52.1388513,30.9771829 L39.3388513,30.9771829 C38.6591163,30.9771829 38.1080821,30.4261488 38.1080821,29.7464137 C38.1080821,29.0666786 38.6591163,28.5156445 39.3388513,28.5156445 L52.1388513,28.5156445 C52.8185864,28.5156445 53.3696206,29.0666786 53.3696206,29.7464137 C53.4926975,30.4848753 52.8773129,30.9771829 52.1388513,30.9771829 L52.1388513,30.9771829 Z" id="形状" fill="#0067CC" fill-rule="nonzero"></path>
            </g>
        </g>
    </g>
</svg>