<svg id="图层_1" data-name="图层 1" xmlns="http://www.w3.org/2000/svg" viewBox="0 0 19 17.62"><defs><style>.cls-1{fill:#0067cc;}</style></defs><path class="cls-1" d="M17.81.19H1.19A1.19,1.19,0,0,0,0,1.38V14.25a1.19,1.19,0,0,0,1.19,1.19H5.94v1.18a1.18,1.18,0,0,0,1.18,1.19h4.75a1.19,1.19,0,0,0,1.19-1.19V15.44h4.75A1.19,1.19,0,0,0,19,14.25V1.38A1.19,1.19,0,0,0,17.81.19ZM17.67,14H1.34V1.68H17.67Z" transform="translate(0 -0.19)"/><path class="cls-1" d="M7.47,5.59a2,2,0,0,1,2.07-2,2,2,0,1,1-.69,4A2,2,0,0,1,7.47,5.59Zm2,2.61c-1.35,0-4,.78-4,2.32v.56a.59.59,0,0,0,.59.6H13a.6.6,0,0,0,.59-.6v-.56C13.56,9,10.86,8.2,9.5,8.2Z" transform="translate(0 -0.19)"/></svg>