<?xml version="1.0" encoding="UTF-8"?>
<svg width="16px" height="16px" viewBox="0 0 16 16" version="1.1" xmlns="http://www.w3.org/2000/svg" xmlns:xlink="http://www.w3.org/1999/xlink">
    <title>形状</title>
    <g id="组织权限" stroke="none" stroke-width="1" fill="none" fill-rule="evenodd">
        <g id="组织权限-用户管理-部门及职位" transform="translate(-1101.000000, -557.000000)" fill="#0067CC" fill-rule="nonzero">
            <g id="编组" transform="translate(560.000000, 323.000000)">
                <path d="M541,235 L541,249 C541,249.552285 541.447715,250 542,250 L556,250 C556.552285,250 557,249.552285 557,249 L557,235 C557,234.447715 556.552285,234 556,234 L542,234 C541.447715,234 541,234.447715 541,235 Z M553,242.888889 L549.90566,242.888889 L549.90566,245.990544 C549.90566,246.520095 549.490566,246.93617 549,246.93617 C548.471698,246.93617 548.056604,246.520095 548.056604,245.990544 L548.056604,242.888889 L545,242.888889 C544.471698,242.888889 544.056604,242.472813 544.056604,241.943262 C544.056604,241.413712 544.471698,241.035461 545,241.035461 L548.056604,241.035461 L548.056604,237.933806 C548.056604,237.404255 548.471698,236.98818 549,236.98818 C549.490566,236.98818 549.90566,237.404255 549.90566,237.933806 L549.90566,241.035461 L553,241.035461 C553.528302,241.035461 553.943396,241.413712 553.943396,241.943262 C553.90566,242.510638 553.490566,242.888889 553,242.888889 Z" id="形状"></path>
            </g>
        </g>
    </g>
</svg>