<?xml version="1.0" encoding="UTF-8"?>
<svg width="16px" height="16px" viewBox="0 0 16 16" version="1.1" xmlns="http://www.w3.org/2000/svg" xmlns:xlink="http://www.w3.org/1999/xlink">
    <title>对勾小</title>
    <g id="组织权限" stroke="none" stroke-width="1" fill="none" fill-rule="evenodd">
        <g id="组织权限-用户管理-部门及职位" transform="translate(-1173.000000, -483.000000)" fill="#0067CC" fill-rule="nonzero">
            <g id="编组" transform="translate(560.000000, 323.000000)">
                <g id="对勾小" transform="translate(613.000000, 160.000000)">
                    <path d="M8,16 C3.582,16 0,12.418 0,8 C0,3.582 3.582,0 8,0 C12.418,0 16,3.582 16,8 C16,12.418 12.418,16 8,16 Z M6.216,11.1413333 C6.37228663,11.2976612 6.58428152,11.3854887 6.80533334,11.3854887 C7.02638515,11.3854887 7.23838005,11.2976612 7.39466667,11.1413333 L12.4466667,6.08933333 C12.6572152,5.87878481 12.7394437,5.57190365 12.6623776,5.28428902 C12.5853115,4.9966744 12.3606589,4.7720218 12.0730443,4.6949557 C11.7854297,4.61788959 11.4785485,4.70011815 11.268,4.91066667 L6.76933333,9.33733333 L4.756,7.324 C4.54545148,7.11345148 4.23857032,7.03122292 3.95095569,7.10828903 C3.66334106,7.18535514 3.43868846,7.41000773 3.36162236,7.69762236 C3.28455625,7.98523699 3.36678481,8.29211815 3.57733333,8.50266667 L6.216,11.1413333 Z" id="形状"></path>
                </g>
            </g>
        </g>
    </g>
</svg>