<?xml version="1.0" encoding="UTF-8"?>
<svg width="16px" height="16px" viewBox="0 0 16 16" version="1.1" xmlns="http://www.w3.org/2000/svg" xmlns:xlink="http://www.w3.org/1999/xlink">
    <title>删除备份</title>
    <g id="组织权限" stroke="none" stroke-width="1" fill="none" fill-rule="evenodd">
        <g id="组织权限-用户管理-部门及职位" transform="translate(-1137.000000, -557.000000)" fill="#0067CC" fill-rule="nonzero">
            <g id="编组" transform="translate(560.000000, 323.000000)">
                <path d="M583.315789,235.201587 L583.315789,234.400529 C583.315789,234.179312 583.504289,234 583.736842,234 L586.684211,234 L586.684211,235.201587 L593,235.201587 L593,236.603438 C593,236.714041 592.905744,236.803702 592.789474,236.803702 L577,236.803702 L577,235.401851 C577,235.291248 577.094256,235.201587 577.210526,235.201587 L583.315789,235.201587 Z M579.105263,237.805024 L591.736842,237.805024 L591.736842,249.322501 C591.736842,249.696671 591.359816,250 590.894737,250 L578.263158,250 L578.263158,238.482523 C578.263158,238.108353 578.640184,237.805024 579.105263,237.805024 Z M582.684211,240.515019 C582.56794,240.515019 582.473684,240.59085 582.473684,240.684393 L582.473684,247.290005 L583.947368,247.290005 C584.063639,247.290005 584.157895,247.214174 584.157895,247.120631 L584.157895,240.515019 L582.684211,240.515019 Z M586.052632,240.515019 C585.936361,240.515019 585.842105,240.59085 585.842105,240.684393 L585.842105,247.290005 L587.315789,247.290005 C587.43206,247.290005 587.526316,247.214174 587.526316,247.120631 L587.526316,240.515019 L586.052632,240.515019 Z" id="删除备份"></path>
            </g>
        </g>
    </g>
</svg>