<?xml version="1.0" encoding="UTF-8"?>
<svg width="41px" height="41px" viewBox="0 0 41 41" version="1.1" xmlns="http://www.w3.org/2000/svg" xmlns:xlink="http://www.w3.org/1999/xlink">
    <title>hov资料卡</title>
    <defs>
        <linearGradient x1="50%" y1="0%" x2="50%" y2="100%" id="linearGradient-1">
            <stop stop-color="#DFE1F4" offset="0%"></stop>
            <stop stop-color="#C4C9E0" offset="100%"></stop>
        </linearGradient>
        <linearGradient x1="50%" y1="0%" x2="50%" y2="106.328386%" id="linearGradient-2">
            <stop stop-color="#FFFFFF" offset="0%"></stop>
            <stop stop-color="#DDE2FF" offset="100%"></stop>
        </linearGradient>
        <linearGradient x1="50%" y1="0%" x2="50%" y2="100%" id="linearGradient-3">
            <stop stop-color="#FFFFFF" offset="0%"></stop>
            <stop stop-color="#DAE3FF" offset="100%"></stop>
        </linearGradient>
    </defs>
    <g id="统一头部组件" stroke="none" stroke-width="1" fill="none" fill-rule="evenodd">
        <g id="统一头部组件1" transform="translate(-1585.000000, -77.000000)">
            <g id="编组-9备份-3" transform="translate(1570.000000, 53.001000)">
                <g id="hov资料卡" transform="translate(15.500000, 24.174667)">
                    <circle id="Oval" fill="url(#linearGradient-1)" fill-rule="nonzero" cx="20" cy="20" r="20"></circle>
                    <path d="M19.8534783,28.3333334 C26.1461746,28.3333334 31.6983948,30.206725 35,33.0611533 C31.3322753,37.3106056 25.9069476,40 19.8534783,40 C13.8000089,40 8.37468129,37.3106056 4.70714174,33.0614634 C8.00904459,30.206562 13.5610556,28.3333334 19.8534783,28.3333334 Z" id="path-2" fill="url(#linearGradient-2)"></path>
                    <rect id="矩形" fill="#FFFFFF" fill-rule="nonzero" x="5" y="16.6666667" width="3.33333333" height="5" rx="1.66666667"></rect>
                    <rect id="矩形备份-5" fill="#FFFFFF" fill-rule="nonzero" x="31.6666666" y="16.6666667" width="3.33333333" height="5" rx="1.66666667"></rect>
                    <g id="椭圆形" transform="translate(6.666667, 8.333333)">
                        <g id="path-4-link" fill="#FFFFFF">
                            <path d="M13.3333333,18.3333333 C20.69713,18.3333333 26.6666667,16.0626102 26.6666667,11 C26.6666667,5.9373898 21.9761782,0 13.3333333,0 C4.6904885,0 0,5.9373898 0,11 C0,16.0626102 5.9695367,18.3333333 13.3333333,18.3333333 Z" id="path-4"></path>
                        </g>
                        <g id="path-4-link" fill="url(#linearGradient-3)" fill-rule="nonzero">
                            <path d="M13.3333333,18.3333333 C20.69713,18.3333333 26.6666667,16.0626102 26.6666667,11 C26.6666667,5.9373898 21.9761782,0 13.3333333,0 C4.6904885,0 0,5.9373898 0,11 C0,16.0626102 5.9695367,18.3333333 13.3333333,18.3333333 Z" id="path-4"></path>
                        </g>
                    </g>
                </g>
            </g>
        </g>
    </g>
</svg>