<svg id="图层_1" data-name="图层 1" xmlns="http://www.w3.org/2000/svg" xmlns:xlink="http://www.w3.org/1999/xlink" viewBox="0 0 40 40"><defs><style>.cls-1{fill:url(#未命名的渐变_5);}.cls-2,.cls-4{fill-rule:evenodd;}.cls-2{fill:url(#未命名的渐变_2);}.cls-3,.cls-4{fill:#fff;}.cls-5{fill:url(#未命名的渐变_3);}</style><linearGradient id="未命名的渐变_5" x1="36.08" y1="42.06" x2="36.08" y2="41.06" gradientTransform="matrix(40, 0, 0, -40, -1423.17, 1682.55)" gradientUnits="userSpaceOnUse"><stop offset="0" stop-color="#dfe1f4"/><stop offset="1" stop-color="#c4c9e0"/></linearGradient><linearGradient id="未命名的渐变_2" x1="39.65" y1="10.56" x2="39.65" y2="9.5" gradientTransform="matrix(25.94, 0, 0, -8.84, -992.15, 142.46)" gradientUnits="userSpaceOnUse"><stop offset="0" stop-color="#fff"/><stop offset="1" stop-color="#dde2ff"/></linearGradient><linearGradient id="未命名的渐变_3" x1="41.03" y1="28.23" x2="41.03" y2="27.23" gradientTransform="matrix(22.83, 0, 0, -15.7, -900.43, 475.1)" gradientUnits="userSpaceOnUse"><stop offset="0" stop-color="#fff"/><stop offset="1" stop-color="#dae3ff"/></linearGradient></defs><title>头像</title><g id="权限"><g id="权限-创建用户"><g id="新增用户"><g id="编组-14"><g id="默认头像"><circle id="Oval" class="cls-1" cx="20" cy="20" r="20"/><path id="path-2" class="cls-2" d="M36.17,49.11c5.39,0,10.15,1.6,13,4a20,20,0,0,1-13,4.79,19.74,19.74,0,0,1-13-4.79C26,50.71,30.79,49.11,36.17,49.11Z" transform="translate(-16.17 -17.95)"/><path id="矩形" class="cls-3" d="M24.88,39.12h0a1.43,1.43,0,0,1,1.43,1.43V42a1.43,1.43,0,0,1-1.43,1.43h0A1.43,1.43,0,0,1,23.46,42V40.55A1.43,1.43,0,0,1,24.88,39.12Z" transform="translate(-16.17 -17.95)"/><path id="矩形备份-5" class="cls-3" d="M47.72,39.12h0a1.43,1.43,0,0,1,1.42,1.43V42a1.43,1.43,0,0,1-1.42,1.43h0A1.43,1.43,0,0,1,46.29,42V40.55A1.43,1.43,0,0,1,47.72,39.12Z" transform="translate(-16.17 -17.95)"/><g id="椭圆形"><g id="path-4-link"><path id="path-4" class="cls-4" d="M36.3,47.68c6.3,0,11.42-1.94,11.42-6.28S43.7,32,36.3,32,24.88,37.07,24.88,41.4,30,47.68,36.3,47.68Z" transform="translate(-16.17 -17.95)"/></g><g id="path-4-link-2" data-name="path-4-link"><path id="path-4-2" data-name="path-4" class="cls-5" d="M36.3,47.68c6.3,0,11.42-1.94,11.42-6.28S43.7,32,36.3,32,24.88,37.07,24.88,41.4,30,47.68,36.3,47.68Z" transform="translate(-16.17 -17.95)"/></g></g></g></g></g></g></g></svg>