<svg id="图层_1" data-name="图层 1" xmlns="http://www.w3.org/2000/svg" xmlns:xlink="http://www.w3.org/1999/xlink" viewBox="0 0 40 40"><defs><style>.cls-1{fill:url(#未命名的渐变_6);}.cls-2,.cls-4{fill-rule:evenodd;}.cls-2{fill:url(#未命名的渐变_2);}.cls-3,.cls-4{fill:#fff;}.cls-5{fill:url(#未命名的渐变_3);}.cls-6{opacity:0.3;isolation:isolate;}</style><linearGradient id="未命名的渐变_6" x1="36.15" y1="42.07" x2="36.15" y2="41.07" gradientTransform="matrix(40, 0, 0, -40, -1425.83, 1682.66)" gradientUnits="userSpaceOnUse"><stop offset="0" stop-color="#dfe1f4"/><stop offset="1" stop-color="#c4c9e0"/></linearGradient><linearGradient id="未命名的渐变_2" x1="39.75" y1="10.57" x2="39.75" y2="9.51" gradientTransform="matrix(25.94, 0, 0, -8.84, -991.48, 142.46)" gradientUnits="userSpaceOnUse"><stop offset="0" stop-color="#fff"/><stop offset="1" stop-color="#dde2ff"/></linearGradient><linearGradient id="未命名的渐变_3" x1="41.14" y1="28.24" x2="41.14" y2="27.24" gradientTransform="matrix(22.83, 0, 0, -15.7, -899.76, 475.1)" gradientUnits="userSpaceOnUse"><stop offset="0" stop-color="#fff"/><stop offset="1" stop-color="#dae3ff"/></linearGradient></defs><title>头像点击</title><g id="权限"><g id="权限-创建用户"><g id="新增用户"><g id="编组-14"><g id="头像点击"><circle id="Oval" class="cls-1" cx="20" cy="20" r="20"/><path id="path-2" class="cls-2" d="M39.5,49c5.39,0,10.14,1.6,13,4a20,20,0,0,1-25.94,0C29.36,50.6,34.11,49,39.5,49Z" transform="translate(-19.5 -17.84)"/><path id="矩形" class="cls-3" d="M28.21,39h0a1.43,1.43,0,0,1,1.43,1.43v1.42a1.43,1.43,0,0,1-1.43,1.43h0a1.43,1.43,0,0,1-1.43-1.43V40.44A1.43,1.43,0,0,1,28.21,39Z" transform="translate(-19.5 -17.84)"/><path id="矩形备份-5" class="cls-3" d="M51,39h0a1.43,1.43,0,0,1,1.43,1.43v1.42A1.43,1.43,0,0,1,51,43.29h0a1.43,1.43,0,0,1-1.43-1.43V40.44A1.43,1.43,0,0,1,51,39Z" transform="translate(-19.5 -17.84)"/><g id="椭圆形"><g id="path-4-link"><path id="path-4" class="cls-4" d="M39.63,47.57c6.3,0,11.41-1.94,11.41-6.28s-4-9.42-11.41-9.42S28.21,37,28.21,41.29,33.32,47.57,39.63,47.57Z" transform="translate(-19.5 -17.84)"/></g><g id="path-4-link-2" data-name="path-4-link"><path id="path-4-2" data-name="path-4" class="cls-5" d="M39.63,47.57c6.3,0,11.41-1.94,11.41-6.28s-4-9.42-11.41-9.42S28.21,37,28.21,41.29,33.32,47.57,39.63,47.57Z" transform="translate(-19.5 -17.84)"/></g></g><circle id="Oval备份" class="cls-6" cx="20" cy="20" r="20"/><g id="编辑"><path id="形状" class="cls-3" d="M47.22,34.22,43.11,30.1a.92.92,0,0,0-.63-.26.9.9,0,0,0-.62.26L31.76,40.21a.86.86,0,0,0-.26.63l0,4.08a.88.88,0,0,0,.88.88l4.08,0h0a.9.9,0,0,0,.62-.26l10.1-10.1A.89.89,0,0,0,47.22,34.22Zm-11,10.16-3.29,0,0-3.3,7-7,3.31,3.32Zm8-8L41,33.05l1.52-1.53,3.32,3.32-1.52,1.52Zm2.5,8H41a.73.73,0,0,0-.73.72.73.73,0,0,0,.73.73h5.79a.73.73,0,0,0,.72-.73A.72.72,0,0,0,46.78,44.36Zm0-2.74H44.54a.73.73,0,0,0-.73.73.73.73,0,0,0,.73.72h2.24a.72.72,0,0,0,.72-.72A.73.73,0,0,0,46.78,41.62Z" transform="translate(-19.5 -17.84)"/></g></g></g></g></g></g></svg>