<?xml version="1.0" encoding="UTF-8"?>
<svg width="17px" height="16px" viewBox="0 0 17 16" version="1.1" xmlns="http://www.w3.org/2000/svg" xmlns:xlink="http://www.w3.org/1999/xlink">
    <title>下载</title>
    <g id="环境健康安全管理系统-pc" stroke="none" stroke-width="1" fill="none" fill-rule="evenodd">
        <g id="下载" transform="translate(0.501001, 0.000000)" fill="#0067CC" fill-rule="nonzero">
            <g id="xiazai-wenjianxiazai-12">
                <path d="M14.8571429,2.55639097 L8.14285714,2.55639097 L6.28571429,0.210526304 C6.17142857,0.0601503701 6.02857143,0 5.85714286,0 L1.14285715,0 C0.514285714,0 0,0.541353384 0,1.20300751 L0,14.7969925 C0,15.4586466 0.514285714,16 1.14285715,16 L14.8571429,16 C15.4857143,16 16,15.4586466 16,14.7969925 L16,3.75939849 C16,3.09774435 15.4857143,2.55639097 14.8571429,2.55639097 Z M7.86663481,13.0980488 L4.86663481,9.72881017 L7.24720999,9.72881017 L6.24720999,5.49804878 L7.86663481,5.49804878 L9.56064078,5.49804878 L8.56064078,9.72881017 L10.8666348,9.72881017 L7.86663481,13.0980488 Z" id="形状"></path>
            </g>
        </g>
    </g>
</svg>