<?xml version="1.0" encoding="UTF-8"?>
<svg width="17px" height="16px" viewBox="0 0 17 16" version="1.1" xmlns="http://www.w3.org/2000/svg" xmlns:xlink="http://www.w3.org/1999/xlink">
    <title>导出</title>
    <g id="环境健康安全管理系统-pc" stroke="none" stroke-width="1" fill="none" fill-rule="evenodd">
        <g id="导出" transform="translate(0.961000, -0.000000)" fill="#0067CC" fill-rule="nonzero">
            <g id="daochusuoyou">
                <path d="M15.4,4.32 L10.6,0.48 C10.2,0.159999994 9.69999999,0 9.2,0 L2,0 C0.900000001,0 0,0.719999999 0,1.60000001 L0,14.4 C0,15.28 0.900000001,16 2,16 L14,16 C15.1,16 16,15.28 16,14.4 L16,5.44000001 C16,5.04000001 15.8,4.64 15.4,4.32 Z M8.48,10.96 L8.48,9.2 C8.48,9.2 5.84,9.2 4.00000001,12.72 C4.00000001,12.72 4.00000001,7.11999999 8.48,5.6 L8.48,3.92 L12,7.43999999 L8.48,10.96 Z" id="形状"></path>
            </g>
        </g>
    </g>
</svg>