<?xml version="1.0" encoding="UTF-8"?>
<svg width="17px" height="16px" viewBox="0 0 17 16" version="1.1" xmlns="http://www.w3.org/2000/svg" xmlns:xlink="http://www.w3.org/1999/xlink">
    <title>刷新</title>
    <g id="环境健康安全管理系统-pc" stroke="none" stroke-width="1" fill="none" fill-rule="evenodd">
        <g id="daochusuoyou" transform="translate(0.461000, -0.000000)" fill="#0067CC">
            <path d="M14,0 C15.1045695,-2.02906125e-16 16,0.8954305 16,2 L16,14 C16,15.1045695 15.1045695,16 14,16 L2,16 C0.8954305,16 1.3527075e-16,15.1045695 0,14 L0,2 C-1.3527075e-16,0.8954305 0.8954305,2.02906125e-16 2,0 L14,0 Z M8.0239521,4.13934427 L7.59281437,4.13934427 L8.5988024,5.17213115 C9.98802395,5.41803279 11.0419162,6.64754099 11.0419162,8.07377049 C11.0419162,9.54918033 9.89221557,10.7786885 8.45508982,10.9754098 L8.45508982,10.9754098 L9.55688623,12.1557377 L9.94011977,12.5 L9.94011977,11.5163934 C11.1377246,10.8770492 12,9.54918033 12,8.07377049 C12,5.90983607 10.2275449,4.13934427 8.0239521,4.13934427 L8.0239521,4.13934427 Z M6.05988024,3.5 L6.05988024,4.63114754 C4.86227545,5.2704918 4,6.59836066 4,8.07377049 C4,10.2377049 5.77245508,12.0081967 7.9760479,12.0081967 C8.16766467,12.0081967 8.35928144,11.9590164 8.50299402,11.9590164 L8.50299402,11.9590164 L7.54491018,10.9754098 C6.10778443,10.7786885 5.00598802,9.54918033 5.00598802,8.07377049 C5.00598802,6.54918032 6.15568862,5.2704918 7.64071857,5.12295082 L7.64071857,5.12295082 L6.68263473,4.13934427 L6.05988024,3.5 Z" id="形状结合"></path>
        </g>
    </g>
</svg>