<?xml version="1.0" encoding="UTF-8"?>
<svg width="169px" height="19px" viewBox="0 0 169 19" version="1.1" xmlns="http://www.w3.org/2000/svg" xmlns:xlink="http://www.w3.org/1999/xlink">
    <title>环境安全健康系统ziEHS</title>
    <defs>
        <linearGradient x1="50.0030338%" y1="108.19268%" x2="50.0030338%" y2="-19.2490044%" id="linearGradient-1">
            <stop stop-color="#004FCC" offset="0%"></stop>
            <stop stop-color="#0160E1" offset="23%"></stop>
            <stop stop-color="#0F79E8" offset="45%"></stop>
            <stop stop-color="#34B9F9" offset="93%"></stop>
            <stop stop-color="#3AC2FC" offset="100%"></stop>
        </linearGradient>
    </defs>
    <g id="页面-1" stroke="none" stroke-width="1" fill="none" fill-rule="evenodd">
        <g id="环境安全健康系统ziEHS" transform="translate(0.748502, 0.416393)" fill-rule="nonzero">
            <g id="编组-7" transform="translate(-0.000000, 0.000000)">
                <path d="M1.34576021,9.9982122 C2.05747698,12.7102989 4.0791477,15.0427647 6.81129641,15.6235499 C7.11245249,15.6877144 7.24786288,15.9547119 7.24786288,16.2639187 L7.24786288,17.7289042 C7.24786288,18.0902344 5.94387465,18.0904961 5.94387465,17.7289042 L5.94387465,16.7774636 C4.55561622,16.391855 3.48412909,15.461748 2.43304939,14.4547157 C1.25639563,13.3273708 0.416594624,11.901486 0.00450174817,10.3314356 C-0.0872990219,9.98198292 1.25431804,9.64879222 1.34576021,9.9982122 Z M18.4929763,10.3314356 C18.0808835,11.901486 17.2410824,13.3273708 16.0644287,14.4547157 C15.0884261,15.3898172 14.0948273,16.2585901 12.8463468,16.6866694 L12.5536034,16.7774636 L12.5536034,17.7289042 C12.5536034,18.0678966 11.40752,18.0888536 11.2642596,17.7924222 L11.2496152,17.7289042 L11.2496152,16.2639187 C11.2496152,15.9547119 11.4653274,15.6877144 11.7664835,15.6235499 C14.4986322,15.0427647 16.5203029,12.7102989 17.2320197,9.9982122 C17.3234619,9.64879222 18.5847771,9.98198292 18.4929763,10.3314356 Z M9.2470072,0 L15.0305209,1.93493479 C15.3145662,2.02990543 15.5061303,2.29680075 15.5061303,2.59739796 L15.5061303,7.67830682 C15.5061303,10.5054012 13.4197898,13.0651095 9.2470072,15.3567159 C5.07422453,13.0651095 2.98788413,10.5054012 2.98788413,7.67830682 L2.98788413,2.59668221 C2.98812863,2.2963304 3.17969265,2.02982363 3.46359533,1.93493479 L9.2470072,0 Z M9.24462021,1.21558371 L4.16792867,2.90735652 L4.16792867,7.66072677 L4.17298555,7.8760738 C4.22593392,8.94879556 4.67486905,9.96426695 5.47121948,10.9377774 L5.48277774,10.9516705 C6.05963727,10.0292508 6.95219115,9.34929221 7.98868237,9.03951399 C7.41325991,8.55003516 7.03649044,7.73614145 7.03649044,6.82103931 L7.03649044,6.82103931 L7.03649044,6.61634118 L5.81246931,6.61634118 L5.81246931,5.87175827 L6.55430819,5.87175827 L6.55430819,5.4994341 C6.55634567,4.16385729 7.63454834,3.08165007 8.9652194,3.07960506 L8.9652194,3.07960506 L9.54756422,3.07960506 C10.879686,3.08165007 11.9584754,4.16614774 11.9584754,5.50314786 L11.9584754,5.50314786 L11.9584754,5.87547203 L12.878325,5.87547203 L12.8894741,6.61634118 L11.487426,6.61634118 L11.487426,6.82103931 C11.487426,7.73967635 11.1114996,8.55170432 10.5372246,9.04189475 C11.4922393,9.32448808 12.3252926,9.92411395 12.9017721,10.7382849 L13.027,10.925 L13.1934184,10.7147394 C13.9298807,9.74492366 14.321333,8.73161773 14.321333,7.66072677 L14.321333,2.90735652 L9.24462021,1.21558371 Z" id="形状结合" fill="url(#linearGradient-1)"></path>
                <path d="M12.878325,5.87547203 L11.9584754,5.87547203 L11.9584754,5.50314786 C11.9584754,4.16614774 10.879686,3.08165007 9.54756422,3.07960506 L8.9652194,3.07960506 C7.63454834,3.08165007 6.55634567,4.16385729 6.55430819,5.4994341 L6.55430819,5.87175827 L5.81246931,5.87175827 L5.81246931,6.61634118 L12.8894741,6.61634118 L12.878325,5.87547203 Z" id="形状结合" fill="#C6000C"></path>
            </g>
            <g id="环境安全健康系统" transform="translate(24.497751, 0.387000)" fill="#333333">
                <path d="M6.588,3.402 L6.588,1.224 L16.542,1.224 L16.542,3.402 L12.69,3.402 C12.342,4.434 11.952,5.418 11.52,6.354 L12.366,6.354 L12.366,7.74 L13.536,6.894 C14.892,8.55 16.086,10.056 17.118,11.412 L15.3,12.924 C14.244,11.4 13.266,10.032 12.366,8.82 L12.366,17.046 L9.99,17.046 L9.99,9.18 C9.078,10.608 7.98,12.006 6.696,13.374 C6.276,12.726 5.766,12.054 5.166,11.358 C7.53,9.126 9.21,6.474 10.206,3.402 L6.588,3.402 Z M0.27,3.42 L0.27,1.278 L6.012,1.278 L6.012,3.42 L4.302,3.42 L4.302,6.894 L5.958,6.894 L5.958,9 L4.302,9 L4.302,12.852 L6.066,12.564 C6.03,13.332 6.024,14.082 6.048,14.814 C4.02,15.138 2.124,15.48 0.36,15.84 L0,13.464 L2.052,13.194 L2.052,9 L0.396,9 L0.396,6.894 L2.052,6.894 L2.052,3.42 L0.27,3.42 Z" id="形状"></path>
                <path d="M23.742,13.14 L23.742,6.912 L33.894,6.912 L33.894,13.14 L31.374,13.14 L31.374,14.472 C31.35,14.904 31.572,15.114 32.04,15.102 L32.526,15.102 C32.982,15.126 33.24,14.928 33.3,14.508 C33.36,14.208 33.414,13.77 33.462,13.194 C34.134,13.434 34.698,13.626 35.154,13.77 C35.082,14.382 34.992,14.94 34.884,15.444 C34.752,16.368 34.044,16.812 32.76,16.776 L31.266,16.776 C29.886,16.812 29.22,16.218 29.268,14.994 L29.268,13.14 L27.972,13.14 C27.936,15.216 26.304,16.578 23.076,17.226 C22.752,16.674 22.386,16.092 21.978,15.48 C24.486,15.024 25.77,14.244 25.83,13.14 L23.742,13.14 Z M23.436,3.114 L23.436,1.458 L27.648,1.458 C27.432,0.906 27.276,0.522 27.18,0.306 L29.898,0.108 C29.91,0.156 29.934,0.228 29.97,0.324 C30.138,0.816 30.258,1.194 30.33,1.458 L34.362,1.458 L34.362,3.114 L32.814,3.114 L32.994,3.132 C32.754,3.528 32.49,3.954 32.202,4.41 L34.92,4.41 L34.92,6.102 L23.112,6.102 L23.112,4.41 L25.812,4.41 C25.716,4.242 25.566,3.996 25.362,3.672 C25.206,3.432 25.098,3.258 25.038,3.15 L25.38,3.114 L23.436,3.114 Z M18.27,6.714 L18.27,4.446 L19.548,4.446 L19.548,0.18 L21.708,0.18 L21.708,4.446 L22.788,4.446 L22.788,6.714 L21.708,6.714 L21.708,12.06 L23.112,11.7 C23.1,12.504 23.1,13.266 23.112,13.986 C21.036,14.562 19.44,15.03 18.324,15.39 L17.964,12.942 C18.24,12.882 18.666,12.786 19.242,12.654 C19.374,12.618 19.476,12.594 19.548,12.582 L19.548,6.714 L18.27,6.714 Z M25.848,10.656 L25.848,11.61 L31.788,11.61 L31.788,10.656 L25.848,10.656 Z M25.848,8.442 L25.848,9.378 L31.788,9.378 L31.788,8.442 L25.848,8.442 Z M27.396,3.114 C27.612,3.438 27.882,3.87 28.206,4.41 L29.772,4.41 C30.072,3.942 30.33,3.51 30.546,3.114 L27.396,3.114 Z" id="形状"></path>
                <path d="M36.036,9.18 L36.036,7.002 L41.22,7.002 C41.7,6.138 42.156,5.256 42.588,4.356 L45.27,4.968 C44.874,5.7 44.49,6.378 44.118,7.002 L53.064,7.002 L53.064,9.18 L50.148,9.18 C49.584,10.716 48.768,11.97 47.7,12.942 C49.008,13.434 50.592,14.04 52.452,14.76 L51.318,17.064 C48.966,15.996 47.022,15.144 45.486,14.508 C43.734,15.528 41.034,16.398 37.386,17.118 C37.194,16.614 36.9,15.942 36.504,15.102 C36.444,14.97 36.402,14.874 36.378,14.814 C39.03,14.454 41.13,13.968 42.678,13.356 C42.546,13.296 42.348,13.212 42.084,13.104 C40.404,12.432 39.12,11.922 38.232,11.574 C38.808,10.806 39.36,10.008 39.888,9.18 L36.036,9.18 Z M49.896,5.832 L49.896,4.14 L39.186,4.14 L39.186,5.778 L36.774,5.778 L36.774,2.034 L43.488,2.034 C43.272,1.434 43.056,0.858 42.84,0.306 L45.54,0.054 C45.816,0.81 46.05,1.47 46.242,2.034 L52.326,2.034 L52.326,5.832 L49.896,5.832 Z M41.562,10.782 C42.834,11.202 44.04,11.622 45.18,12.042 C46.176,11.298 46.932,10.344 47.448,9.18 L42.714,9.18 C42.666,9.24 42.6,9.336 42.516,9.468 C42.252,9.84 41.934,10.278 41.562,10.782 Z" id="形状"></path>
                <path d="M69.84,7.956 C68.748,7.38 67.92,6.912 67.356,6.552 L67.356,8.136 L63.756,8.136 L63.756,9.936 L68.868,9.936 L68.868,12.096 L63.756,12.096 L63.756,14.166 L70.452,14.166 L70.452,16.362 L54.594,16.362 L54.594,14.166 L61.236,14.166 L61.236,12.096 L56.214,12.096 L56.214,9.936 L61.236,9.936 L61.236,8.136 L57.708,8.136 L57.708,6.606 C56.904,7.134 56.052,7.632 55.152,8.1 C54.612,7.14 54.186,6.444 53.874,6.012 C57.45,4.26 59.97,2.262 61.434,0.018 L64.242,0.198 L63.918,0.702 C65.706,2.886 68.106,4.572 71.118,5.76 C70.734,6.396 70.308,7.128 69.84,7.956 Z M62.658,2.394 C61.578,3.678 60.24,4.872 58.644,5.976 L66.474,5.976 C64.974,4.968 63.702,3.774 62.658,2.394 Z" id="形状"></path>
                <path d="M80.352,5.616 L80.352,4.014 L83.178,4.014 L83.178,3.06 L80.964,3.06 L80.964,1.476 L83.178,1.476 L83.178,0.126 L85.122,0.126 L85.122,1.476 L88.164,1.476 L88.164,4.014 L88.992,4.014 L88.992,5.616 L88.164,5.616 L88.164,8.154 L85.122,8.154 L85.122,9.036 L88.308,9.036 L88.308,10.638 L85.122,10.638 L85.122,11.556 L88.56,11.556 L88.56,13.158 L85.122,13.158 L85.122,14.616 C86.742,14.64 88.05,14.634 89.046,14.598 C88.842,15.306 88.656,15.99 88.488,16.65 C87.072,16.65 85.386,16.62 83.43,16.56 C81.078,16.5 79.392,15.972 78.372,14.976 C77.916,15.684 77.304,16.422 76.536,17.19 C76.464,17.058 76.332,16.812 76.14,16.452 C75.864,15.96 75.654,15.576 75.51,15.3 C76.158,14.652 76.674,14.016 77.058,13.392 C76.506,12.492 76.05,11.376 75.69,10.044 L77.13,9.036 C77.298,9.84 77.568,10.626 77.94,11.394 C78.168,10.626 78.318,9.636 78.39,8.424 L76.122,8.424 L76.122,6.498 L78.246,3.366 L76.446,3.366 L76.446,1.458 L80.352,1.458 L80.352,3.42 L78.282,6.534 L80.28,6.534 L80.28,7.218 C80.208,9.834 79.872,11.844 79.272,13.248 C80.052,14.076 81.354,14.514 83.178,14.562 L83.178,13.158 L80.406,13.158 L80.406,11.556 L83.178,11.556 L83.178,10.638 L80.748,10.638 L80.748,9.036 L83.178,9.036 L83.178,8.154 L80.892,8.154 L80.892,6.588 L83.178,6.588 L83.178,5.616 L80.352,5.616 Z M73.44,17.028 L73.44,8.784 C73.116,9.396 72.78,9.99 72.432,10.566 C72.372,10.062 72.246,9.306 72.054,8.298 C71.982,7.974 71.934,7.734 71.91,7.578 C72.954,5.61 73.812,3.114 74.484,0.09 L76.536,0.486 C76.212,1.77 75.84,3.006 75.42,4.194 L75.42,17.028 L73.44,17.028 Z M85.122,6.588 L86.346,6.588 L86.346,5.616 L85.122,5.616 L85.122,6.588 Z M86.346,3.06 L85.122,3.06 L85.122,4.014 L86.346,4.014 L86.346,3.06 Z" id="形状"></path>
                <path d="M91.746,17.19 C91.194,16.71 90.606,16.224 89.982,15.732 C90.546,14.556 90.918,13.464 91.098,12.456 C91.29,11.448 91.386,10.038 91.386,8.226 L91.386,1.404 L98.028,1.404 C97.884,0.924 97.752,0.516 97.632,0.18 L100.404,0 L100.8,1.404 L106.794,1.404 L106.794,3.258 L100.746,3.258 L100.746,4.23 L105.552,4.23 L105.552,6.714 L106.992,6.714 L106.992,8.352 L105.552,8.352 L105.552,10.8 L106.506,11.952 C105.726,12.42 104.826,12.912 103.806,13.428 C104.598,13.86 105.648,14.244 106.956,14.58 L105.876,16.614 C103.416,15.666 101.706,14.598 100.746,13.41 L100.746,14.796 C100.818,16.236 100.2,16.956 98.892,16.956 C98.556,16.98 97.884,17.004 96.876,17.028 C96.756,17.028 96.666,17.028 96.606,17.028 C96.474,16.392 96.33,15.798 96.174,15.246 C96.894,15.27 97.416,15.276 97.74,15.264 C98.388,15.288 98.688,15.006 98.64,14.418 L98.64,13.824 C98.436,13.908 98.136,14.034 97.74,14.202 C96.024,14.934 94.656,15.534 93.636,16.002 L92.844,14.364 C92.604,15.18 92.238,16.122 91.746,17.19 Z M94.428,5.814 L94.428,4.23 L98.64,4.23 L98.64,3.258 L93.492,3.258 L93.492,6.714 L98.64,6.714 L98.64,5.814 L94.428,5.814 Z M94.266,10.872 L94.266,9.27 L98.64,9.27 L98.64,8.352 L93.492,8.352 L93.492,8.388 C93.504,10.776 93.312,12.672 92.916,14.076 C93,14.04 93.126,13.992 93.294,13.932 C93.942,13.704 94.68,13.434 95.508,13.122 C94.776,12.654 94.11,12.24 93.51,11.88 L94.338,10.872 L94.266,10.872 Z M96.498,12.762 C96.87,12.618 97.422,12.402 98.154,12.114 C98.37,12.03 98.532,11.964 98.64,11.916 L98.64,10.872 L95.094,10.872 C95.646,11.16 96.324,11.538 97.128,12.006 L96.498,12.762 Z M100.944,10.872 C101.352,11.424 101.766,11.892 102.186,12.276 C103.218,11.724 104.04,11.256 104.652,10.872 L100.944,10.872 Z M100.746,9.27 L103.5,9.27 L103.5,8.352 L100.746,8.352 L100.746,9.27 Z M103.5,5.814 L100.746,5.814 L100.746,6.714 L103.5,6.714 L103.5,5.814 Z" id="形状"></path>
                <path d="M110.268,7.416 L109.638,5.436 C110.334,5.268 110.868,5.076 111.24,4.86 C111.9,4.512 112.782,3.978 113.886,3.258 C111.762,3.33 110.202,3.378 109.206,3.402 C109.194,3.342 109.176,3.246 109.152,3.114 C108.984,2.346 108.84,1.74 108.72,1.296 C115.296,1.164 120.336,0.96 123.84,0.684 L124.362,2.718 C122.37,2.862 120.192,2.988 117.828,3.096 C115.944,4.2 114.588,4.968 113.76,5.4 C113.988,5.388 114.342,5.376 114.822,5.364 C116.262,5.328 117.378,5.298 118.17,5.274 C119.406,4.578 120.48,3.936 121.392,3.348 L123.156,4.914 C119.964,6.63 116.844,8.172 113.796,9.54 C114.696,9.516 116.172,9.468 118.224,9.396 C119.184,9.36 119.898,9.336 120.366,9.324 C120.258,9.204 120.096,9.03 119.88,8.802 C119.544,8.43 119.298,8.16 119.142,7.992 L120.762,6.984 C122.01,8.184 123.354,9.546 124.794,11.07 L123.102,12.366 L121.986,11.106 L118.026,11.25 L118.026,14.184 C118.134,15.948 117.312,16.836 115.56,16.848 C114.972,16.896 114.18,16.92 113.184,16.92 C113.088,16.332 112.92,15.6 112.68,14.724 C113.388,14.76 114.018,14.778 114.57,14.778 C115.29,14.814 115.632,14.442 115.596,13.662 L115.596,11.34 C115.224,11.364 114.672,11.388 113.94,11.412 C112.788,11.46 111.942,11.502 111.402,11.538 C110.874,11.574 110.31,11.646 109.71,11.754 L109.044,9.576 C109.788,9.432 110.502,9.21 111.186,8.91 C112.398,8.334 113.622,7.728 114.858,7.092 L111.942,7.254 C111.414,7.29 110.856,7.344 110.268,7.416 Z M123.48,16.542 C122.28,15.606 120.768,14.526 118.944,13.302 L120.42,11.682 C122.1,12.762 123.618,13.77 124.974,14.706 L123.48,16.542 Z M109.278,16.632 C109.086,16.332 108.738,15.846 108.234,15.174 C108.102,14.994 108,14.856 107.928,14.76 C109.392,13.908 110.898,12.864 112.446,11.628 L113.94,13.212 C112.152,14.604 110.598,15.744 109.278,16.632 Z" id="形状"></path>
                <path d="M131.886,4.05 L131.886,2.088 L136.134,2.088 L135.594,0.306 L138.132,0.09 L138.672,2.088 L142.794,2.088 L142.794,4.05 L137.61,4.05 C136.53,5.37 135.582,6.492 134.766,7.416 L139.176,7.272 L137.88,5.58 L139.536,4.59 C140.652,5.886 141.81,7.32 143.01,8.892 L141.192,10.08 L140.49,9.09 C140.226,9.09 139.956,9.102 139.68,9.126 L139.68,14.004 C139.656,14.472 139.818,14.688 140.166,14.652 L140.364,14.652 C140.772,14.7 141,14.472 141.048,13.968 C141.132,13.464 141.21,12.75 141.282,11.826 C141.414,11.874 141.594,11.946 141.822,12.042 C142.362,12.246 142.782,12.402 143.082,12.51 C142.998,13.398 142.89,14.226 142.758,14.994 C142.578,16.122 141.804,16.674 140.436,16.65 L139.59,16.65 C138.138,16.698 137.442,15.99 137.502,14.526 L137.502,9.234 C137.058,9.27 136.626,9.294 136.206,9.306 C136.206,9.33 136.206,9.36 136.206,9.396 C136.182,10.092 136.158,10.59 136.134,10.89 C136.122,13.434 134.904,15.522 132.48,17.154 C131.964,16.494 131.448,15.882 130.932,15.318 C129.108,15.558 127.566,15.792 126.306,16.02 L125.946,13.752 C128.706,13.44 130.752,13.194 132.084,13.014 C132.06,13.35 132.036,13.812 132.012,14.4 C132.012,14.484 132.012,14.55 132.012,14.598 C133.236,13.734 133.884,12.54 133.956,11.016 L134.01,9.45 C133.41,9.51 132.924,9.588 132.552,9.684 L131.724,7.632 C132.276,7.236 132.756,6.78 133.164,6.264 C133.728,5.604 134.268,4.866 134.784,4.05 L131.886,4.05 Z M126.882,12.312 L126.288,10.35 C126.732,10.038 127.23,9.498 127.782,8.73 C128.094,8.31 128.418,7.83 128.754,7.29 C127.878,7.338 127.128,7.41 126.504,7.506 L125.946,5.544 C126.318,5.22 126.708,4.662 127.116,3.87 C127.74,2.778 128.334,1.506 128.898,0.054 L131.274,0.774 C130.494,2.106 129.546,3.636 128.43,5.364 C128.502,5.364 128.634,5.358 128.826,5.346 C129.294,5.322 129.654,5.304 129.906,5.292 C130.158,4.848 130.41,4.374 130.662,3.87 L132.606,4.77 C131.154,7.038 129.996,8.796 129.132,10.044 L131.832,9.81 C131.76,10.506 131.718,11.154 131.706,11.754 C129.438,11.946 127.83,12.132 126.882,12.312 Z" id="形状"></path>
            </g>
        </g>
    </g>
</svg>