<?xml version="1.0" encoding="UTF-8"?>
<svg width="38px" height="39px" viewBox="0 0 38 39" version="1.1" xmlns="http://www.w3.org/2000/svg" xmlns:xlink="http://www.w3.org/1999/xlink">
    <title>已开通</title>
    <g id="概览页" stroke="none" stroke-width="1" fill="none" fill-rule="evenodd">
        <g id="产品菜单2" transform="translate(-1035.000000, -271.000000)" fill-rule="nonzero">
            <g id="已开通" transform="translate(1035.000000, 271.000000)">
                <polygon id="路径" fill="#0067CC" points="-5.64798208e-13 39 38 2.41660858e-13 38 23.5 23.5 39"></polygon>
                <g transform="translate(24.062225, 25.177559) rotate(-45.000000) translate(-24.062225, -25.177559) translate(12.550225, 21.493559)" fill="#FFFFFF">
                    <path d="M1.528,6.968 C0.616,6.98933333 0.170666667,6.56533333 0.192,5.696 L0.192,1.896 L0.856,1.896 L0.856,2.992 L5.44,2.992 L5.44,0.88 L-5.68434189e-14,0.88 L-5.68434189e-14,0.28 L6.096,0.28 L6.096,3.592 L0.856,3.592 L0.856,5.552 C0.818666667,6.13866667 1.104,6.41333333 1.712,6.376 L5.136,6.376 C5.76,6.41333333 6.10666667,6.16 6.176,5.616 C6.23466667,5.35466667 6.288,5.03466667 6.336,4.656 C6.592,4.752 6.80266667,4.81866667 6.968,4.856 C6.92,5.25066667 6.864,5.59466667 6.8,5.888 C6.70933333,6.29333333 6.55466667,6.57333333 6.336,6.728 C6.128,6.89333333 5.8,6.97333333 5.352,6.968 L1.528,6.968 Z" id="路径"></path>
                    <path d="M7.896,0.928 L7.896,0.328 L14.712,0.328 L14.712,0.928 L13.232,0.928 L13.232,3.192 L15.048,3.192 L15.048,3.808 L13.232,3.808 L13.232,7.28 L12.568,7.28 L12.568,3.808 L10.128,3.808 C10.192,5.424 9.53066667,6.61066667 8.144,7.368 C7.98933333,7.18133333 7.82666667,7 7.656,6.824 C8.37066667,6.408 8.84266667,6 9.072,5.6 C9.32266667,5.2 9.456,4.60266667 9.472,3.808 L7.536,3.808 L7.536,3.192 L9.48,3.192 L9.48,0.928 L7.896,0.928 Z M10.136,0.928 L10.136,3.192 L12.568,3.192 L12.568,0.928 L10.136,0.928 Z" id="形状"></path>
                    <path d="M20.952,6.08 C20.9253333,5.89333333 20.888,5.72266667 20.84,5.568 C21.0426667,5.584 21.248,5.592 21.456,5.592 C21.808,5.624 21.9706667,5.44266667 21.944,5.048 L21.944,4.816 L20.504,4.816 L20.504,5.952 L19.92,5.952 L19.92,4.816 L18.488,4.816 L18.488,6.056 L17.904,6.056 L17.904,1.848 L19.8,1.848 C19.7466667,1.816 19.6613333,1.768 19.544,1.704 C19.032,1.416 18.6666667,1.216 18.448,1.104 L18.816,0.744 C19.168,0.936 19.6026667,1.184 20.12,1.488 L21.608,0.68 L17.776,0.68 L17.776,0.192 L22.464,0.192 L22.464,0.752 L20.624,1.776 L20.744,1.848 L22.528,1.848 L22.528,5.152 C22.5493333,5.74933333 22.264,6.05333333 21.672,6.064 C21.4693333,6.07466667 21.2293333,6.08 20.952,6.08 Z M15.752,7.168 L15.416,6.576 C15.7306667,6.24533333 16.0533333,5.93066667 16.384,5.632 L16.384,3.096 L15.512,3.096 L15.512,2.504 L16.984,2.504 L16.984,5.584 C17.3786667,6.208 17.9893333,6.51466667 18.816,6.504 C19.888,6.52533333 21.2906667,6.52533333 23.024,6.504 C23.0026667,6.56266667 22.976,6.64266667 22.944,6.744 C22.8906667,6.89333333 22.8533333,7.01066667 22.832,7.096 C20.8053333,7.096 19.4,7.08266667 18.616,7.056 C17.7786667,7.05066667 17.1386667,6.736 16.696,6.112 C16.328,6.49066667 16.0133333,6.84266667 15.752,7.168 Z M20.504,3.56 L20.504,4.352 L21.944,4.352 L21.944,3.56 L20.504,3.56 Z M18.488,3.56 L18.488,4.352 L19.92,4.352 L19.92,3.56 L18.488,3.56 Z M21.944,2.32 L20.504,2.32 L20.504,3.104 L21.944,3.104 L21.944,2.32 Z M18.488,2.32 L18.488,3.104 L19.92,3.104 L19.92,2.32 L18.488,2.32 Z M16.96,1.68 C16.704,1.33333333 16.3306667,0.882666667 15.84,0.328 L16.336,0 C16.8853333,0.592 17.2746667,1.02933333 17.504,1.312 L16.96,1.68 Z" id="形状"></path>
                </g>
            </g>
        </g>
    </g>
</svg>