<?xml version="1.0" encoding="UTF-8"?>
<svg width="225px" height="20px" viewBox="0 0 225 20" version="1.1" xmlns="http://www.w3.org/2000/svg" xmlns:xlink="http://www.w3.org/1999/xlink">
    <title>logo.9f54251d</title>
    <g id="页面-1" stroke="none" stroke-width="1" fill="none" fill-rule="evenodd">
        <g id="logo.9f54251d" transform="translate(0.000000, 0.603800)">
            <g id="BOE工业互联网平台" transform="translate(44.656050, 0.000000)" fill="#333333" fill-rule="nonzero">
                <path d="M7.3536,17.0052 L0,17.0052 L0,1.32135 L7.0089,1.32135 C10.341,1.42348333 12.12195,2.65546667 12.35175,5.0173 C12.3389833,6.98336667 11.3048833,8.20896667 9.24945,8.6941 C9.26221667,8.6941 9.26221667,8.70048333 9.24945,8.71325 C11.5219167,9.14731667 12.77305,10.3793 13.00285,12.4092 C12.9900833,15.4732 11.107,17.0052 7.3536,17.0052 Z M6.79825,10.0346 L2.96825,10.0346 L2.96825,14.76465 L6.8557,14.76465 C8.8473,14.7518833 9.84948333,13.9412 9.86225,12.3326 C9.74735,10.8644333 8.72601667,10.0984333 6.79825,10.0346 Z M6.45355,3.54275 L2.96825,3.54275 L2.96825,7.79405 L6.45355,7.79405 C8.22811667,7.74298333 9.1537,6.99613333 9.2303,5.5535 C9.17923333,4.23853333 8.25365,3.56828333 6.45355,3.54275 Z" id="形状"></path>
                <path d="M22.8651,1.1107 C27.6015333,1.40433333 30.1421,4.10448333 30.4868,9.21115 C30.2314667,14.3305833 27.6781333,17.02435 22.8268,17.29245 C17.9882333,16.98605 15.4349,14.2986667 15.1668,9.2303 C15.4093667,4.04703333 17.9754667,1.3405 22.8651,1.1107 Z M22.7119,14.7072 C25.6354667,14.5923 27.1483167,12.7666667 27.25045,9.2303 C27.1227833,5.68116667 25.6290833,3.82361667 22.76935,3.65765 C19.9223833,3.87468333 18.4159167,5.72585 18.24995,9.21115 C18.3776167,12.6709167 19.8649333,14.5029333 22.7119,14.7072 Z" id="形状"></path>
                <polygon id="路径" points="45.2323 16.98605 33.1678 16.98605 33.1678 1.32135 44.94505 1.32135 44.94505 3.7534 36.13605 3.7534 36.13605 7.7366 44.40885 7.7366 44.40885 10.1495 36.13605 10.1495 36.13605 14.554 45.2323 14.554"></polygon>
                <polygon id="路径" points="48.1048 4.07895 48.1048 1.55115 63.75035 1.55115 63.75035 4.07895 57.3351 4.07895 57.3351 14.41995 64.74615 14.41995 64.74615 16.94775 47.12815 16.94775 47.12815 14.41995 54.52005 14.41995 54.52005 4.07895"></polygon>
                <path d="M80.8513,12.08365 L78.8214,11.2602 L78.8214,14.84125 L83.9536,14.84125 L83.9536,17.3116 L66.259,17.3116 L66.259,14.84125 L71.37205,14.84125 L71.37205,11.35595 L69.15065,12.1411 C68.23145,9.3452 67.3186333,6.68973333 66.4122,4.1747 L68.6336,3.38955 C69.5911,5.91735 70.5039167,8.44515 71.37205,10.97295 L71.37205,0.36385 L73.89985,0.36385 L73.89985,14.84125 L76.2936,14.84125 L76.2936,0.36385 L78.8214,0.36385 L78.8214,10.58995 C79.8682667,8.06215 80.7874667,5.68116667 81.579,3.447 L83.877,4.27045 C82.728,7.44935 81.7194333,10.05375 80.8513,12.08365 Z" id="路径"></path>
                <path d="M85.84945,3.38955 L85.84945,1.0341 L102.644,1.0341 L102.644,3.38955 L91.13485,3.38955 L90.86675,5.4386 L100.86305,5.4386 L100.3077,14.95615 L103.1802,14.95615 L103.1802,17.29245 L85.3324,17.29245 L85.3324,14.95615 L97.64585,14.95615 L97.7799,12.81135 L87.30485,12.81135 L88.45385,3.38955 L85.84945,3.38955 Z M98.0863,7.6983 L90.56035,7.6983 L90.1965,10.55165 L97.91395,10.55165 L98.0863,7.6983 Z" id="形状"></path>
                <path d="M104.4441,3.2172 L104.4441,1.12985 L112.19985,1.12985 L112.19985,3.2172 L111.31895,3.2172 L111.31895,12.69645 L112.46795,12.4858 C112.442417,13.1241333 112.42965,13.84545 112.42965,14.64975 C112.04665,14.72635 111.676417,14.7901833 111.31895,14.84125 L111.31895,18.13505 L109.28905,18.13505 L109.28905,15.2051 C108.06345,15.4221333 106.49315,15.7157667 104.57815,16.086 L104.27175,13.80715 L105.30585,13.6731 L105.30585,3.2172 L104.4441,3.2172 Z M112.54455,6.14715 L112.54455,3.9449 L114.68935,3.9449 C113.974417,2.74483333 113.380767,1.79371667 112.9084,1.09155 L114.84255,0.13405 C115.41705,0.951116667 116.061767,1.915 116.7767,3.0257 L114.88085,3.9449 L117.1597,3.9449 C117.900167,2.73206667 118.5768,1.47455 119.1896,0.17235 L121.43015,0.9958 C120.983317,1.74903333 120.370517,2.73206667 119.59175,3.9449 L121.794,3.9449 L121.794,6.14715 L118.1938,6.14715 L118.17465,8.5792 L122.2919,8.5792 L122.2919,10.8006 L118.2704,10.8006 C118.8066,13.022 120.210933,14.6625167 122.4834,15.72215 C122.0621,16.4243167 121.62165,17.1967 121.16205,18.0393 C119.004483,16.6732667 117.6193,15.0774333 117.0065,13.2518 C116.559667,14.8604 115.2064,16.5009167 112.9467,18.17335 C112.8701,18.0712167 112.742433,17.8988667 112.5637,17.6563 C112.053033,16.9669 111.657267,16.4434667 111.3764,16.086 C113.968033,14.554 115.385133,12.7922 115.6277,10.8006 L112.12325,10.8006 L112.12325,8.5792 L115.7809,8.5792 L115.8192,6.14715 L112.54455,6.14715 Z M107.37405,13.34755 L109.28905,13.04115 L109.28905,10.9921 L107.37405,10.9921 L107.37405,13.34755 Z M107.37405,3.2172 L107.37405,5.2854 L109.28905,5.2854 L109.28905,3.2172 L107.37405,3.2172 Z M107.37405,7.10465 L107.37405,9.1537 L109.28905,9.1537 L109.28905,7.10465 L107.37405,7.10465 Z" id="形状"></path>
                <path d="M124.37925,17.98185 L124.37925,0.9958 L140.7142,0.9958 L140.7142,14.84125 C140.765267,16.87115 139.916283,17.8924833 138.16725,17.90525 C137.809783,17.9180167 137.40125,17.9307833 136.94165,17.94355 C136.71185,17.94355 136.450133,17.94355 136.1565,17.94355 C135.913933,17.94355 135.537317,17.94355 135.02665,17.94355 C135.013883,17.8414167 134.981967,17.67545 134.9309,17.44565 C134.803233,16.6668833 134.688333,16.0540833 134.5862,15.60725 C135.364967,15.6583167 136.17565,15.68385 137.01825,15.68385 C137.886383,15.72215 138.3013,15.3072333 138.263,14.4391 L138.263,5.0939 C137.624667,6.67696667 136.9608,8.22811667 136.2714,9.74735 C136.909733,11.04955 137.5353,12.3772833 138.1481,13.73055 L136.29055,14.84125 C136.226717,14.7008167 136.13735,14.49655 136.02245,14.22845 C135.818183,13.76885 135.518167,13.1049833 135.1224,12.23685 C134.637267,13.23265 134.14575,14.2029167 133.64785,15.14765 L131.8286,14.11355 L131.12005,14.45825 C130.77535,13.65395 130.4115,12.8305 130.0285,11.9879 C129.4157,13.1879667 128.834817,14.2731333 128.28585,15.2434 L126.83045,14.26675 L126.83045,17.98185 L124.37925,17.98185 Z M136.48205,4.0981 L138.263,4.979 L138.263,3.23635 L126.83045,3.23635 L126.83045,5.03645 L128.5348,4.15555 L130.0668,7.29615 C130.500867,6.41525 130.979617,5.38115 131.50305,4.19385 L132.7095,4.76835 L133.5138,4.3279 L135.10325,7.3536 C135.588383,6.25566667 136.047983,5.1705 136.48205,4.0981 Z M128.93695,9.59415 C128.043283,7.70468333 127.341117,6.26205 126.83045,5.26625 L126.83045,13.46245 C127.302817,12.6453833 128.004983,11.35595 128.93695,9.59415 Z M133.9734,9.7665 C133.4755,8.74516667 132.990367,7.76851667 132.518,6.83655 L131.19665,9.63245 L132.5563,12.54325 C133.0542,11.6368167 133.526567,10.7112333 133.9734,9.7665 Z" id="形状"></path>
                <path d="M143.64415,3.3321 L143.64415,0.97665 L159.8259,0.97665 L159.8259,3.3321 L153.02765,3.3321 L153.02765,9.958 L160.6685,9.958 L160.6685,12.35175 L153.02765,12.35175 L153.02765,18.1925 L150.38495,18.1925 L150.38495,12.35175 L142.76325,12.35175 L142.76325,9.958 L150.38495,9.958 L150.38495,3.3321 L143.64415,3.3321 Z M156.0342,9.36435 L154.21495,7.7749 C155.376717,6.61313333 156.47465,5.38753333 157.50875,4.0981 L159.4429,5.5152 C158.166233,7.05996667 157.03,8.34301667 156.0342,9.36435 Z M147.1486,9.3452 C146.101733,8.01746667 145.029333,6.75995 143.9314,5.57265 L145.75065,4.0981 C146.886883,5.27263333 148.003967,6.49185 149.1019,7.75575 L147.1486,9.3452 Z" id="形状"></path>
                <path d="M163.75165,18.1925 L163.75165,9.47925 L177.92265,9.47925 L177.92265,18.1925 L175.3757,18.1925 L175.3757,17.06265 L166.27945,17.06265 L166.27945,18.1925 L163.75165,18.1925 Z M177.88435,8.9239 L176.65875,7.5834 C172.879817,7.67276667 169.407283,7.78128333 166.24115,7.90895 C165.079383,7.96001667 164.102733,8.07491667 163.3112,8.25365 L162.10475,5.87905 C162.857983,5.55988333 163.630367,5.08751667 164.4219,4.46195 C166.056033,3.10868333 167.6008,1.62136667 169.0562,0 L171.83295,1.149 C169.854117,2.92356667 168.07955,4.41726667 166.50925,5.6301 L174.6097,5.41945 L172.71385,3.46615 L174.59055,2.1448 C176.31405,3.7917 178.101383,5.5535 179.95255,7.4302 L177.88435,8.9239 Z M166.27945,11.7198 L166.27945,14.8221 L175.3757,14.8221 L175.3757,11.7198 L166.27945,11.7198 Z" id="形状"></path>
            </g>
            <g id="编组" transform="translate(8.430000, 14.816200)" fill="#C6000C">
                <path d="M3.63,1.17 L3.63,1.17 L3.63,1.17 C3.62744165,1.40378799 3.66117632,1.63655723 3.73,1.86 L3.73,1.86 C3.93868628,2.61944683 4.46297945,3.25296774 5.17,3.6 L0,3.6 L3.9,3.55271368e-15 C3.72509491,0.36186113 3.63286789,0.758095728 3.63,1.16" id="Fill-3"></path>
            </g>
            <g id="编组-2" transform="translate(0.000000, 0.566200)" fill="#005BBB">
                <path d="M16.6,8.37 L16.6,8.37 C17.5093082,7.49602944 17.5623808,6.0586483 16.72,5.12 L13.21,1.12 L13.21,1.12 C12.5798525,0.41722591 11.6838525,0.0109425224 10.74,1.33226763e-15 L7.08,1.33226763e-15 L15.51,9.37 L16.6,8.37 Z" id="Fill-8"></path>
                <path d="M6.42,1.4 L6.42,1.4 C5.62748721,0.545916731 4.51513286,0.0603939855 3.35,0.06 L0,0.06 L11.7,12.94 L14.49,10.34 L6.42,1.4 Z" id="Fill-10"></path>
                <path d="M28.93,0.02 L14.05,0.02 L16.28,2.51 C16.3693124,2.6292617 16.4697646,2.73975917 16.58,2.84 C16.8717991,3.12766557 17.2098326,3.36428903 17.58,3.54 C18.1093706,3.7983366 18.6909601,3.93176008 19.28,3.93 L21.2,3.93 C21.6749649,3.93 22.06,4.31503512 22.06,4.79 L22.06,4.79 C22.0560806,4.96091354 22.0040953,5.12726643 21.91,5.27 L13.16,13.46 L13.16,13.46 L13.16,13.52 L13.16,13.52 L13.1,13.62 C12.6682111,14.1038299 12.4328143,14.7315546 12.4398402,15.38 C12.4850568,16.4631087 13.1805203,17.4114681 14.2,17.78 L14.48,17.86 L14.48,17.86 C14.6153798,17.885912 14.7523605,17.902617 14.89,17.91 L18.72,17.91 L18.57,17.91 C17.7325112,17.6466397 17.1646842,16.8679054 17.17,15.99 C17.1677434,15.5380315 17.3233659,15.0994589 17.61,14.75 L17.61,14.75 L17.61,14.75 L17.85,14.52 L29.1,3.91 L32.78,3.91 C32.774504,1.75284723 31.0271528,0.00549595736 28.87,3.99680289e-15" id="Fill-12"></path>
                <path d="M18.19,14.76 L18.04,14.94 C17.9109546,15.0969191 17.8125776,15.2767117 17.75,15.47 C17.7113115,15.6001859 17.6878219,15.7344124 17.68,15.87 C17.6699978,15.9831126 17.6699978,16.0968874 17.68,16.21 C17.7183409,16.5014916 17.839854,16.7757639 18.03,17 C18.4685222,17.4929751 19.0670453,17.8152568 19.72,17.91 L25,17.91 L20,13.03 C18.95,14.03 18.33,14.61 18.16,14.76" id="Fill-14"></path>
            </g>
        </g>
    </g>
</svg>