<?xml version="1.0" encoding="UTF-8"?>
<svg width="17px" height="16px" viewBox="0 0 17 16" version="1.1" xmlns="http://www.w3.org/2000/svg" xmlns:xlink="http://www.w3.org/1999/xlink">
    <title>搜索</title>
    <g id="概览页" stroke="none" stroke-width="1" fill="none" fill-rule="evenodd">
        <g id="产品菜单2" transform="translate(-763.000000, -117.000000)" fill="#0067CC" fill-rule="nonzero">
            <g id="搜索" transform="translate(763.668530, 117.009933)">
                <path d="M15.704,14.8172781 L12.9380672,12.051325 L12.9368687,12.0501875 C13.4108302,11.4890614 13.7972715,10.8595311 14.0831031,10.1829203 C14.4654656,9.27887188 14.6593484,8.31890312 14.6593484,7.32968437 C14.6593484,6.34044531 14.4654656,5.38049687 14.0831031,4.47644844 C13.7139031,3.60355937 13.1854937,2.81976094 12.5125609,2.14682812 C11.8396078,1.47389531 11.0558094,0.945465625 10.1829203,0.576265625 C9.27887187,0.193882813 8.31890312,0 7.32968437,0 C6.34044531,0 5.38049687,0.193882813 4.47644844,0.576265625 C3.60355937,0.945465625 2.81976094,1.473875 2.14682812,2.14682812 C1.473875,2.81976094 0.945465625,3.60357969 0.576265625,4.47644844 C0.193882812,5.38049687 0,6.34046562 0,7.32968437 C0,8.31890312 0.193882812,9.27887188 0.576265625,10.1829203 C0.945465625,11.0558297 1.473875,11.8396281 2.14682812,12.5125609 C2.81976094,13.1854937 3.60357969,13.7139234 4.47644844,14.0831031 C5.38049687,14.4654656 6.34046562,14.6593484 7.32968437,14.6593484 C8.31890312,14.6593484 9.27887187,14.4654656 10.1829203,14.0831031 C10.8487641,13.8014906 11.4625469,13.4269484 12.0150469,12.9665656 C12.0163266,12.9678656 12.017525,12.9692469 12.018825,12.9705266 L14.7847578,15.7364797 C14.9117109,15.8634328 15.0780297,15.9268688 15.2443891,15.9268688 C15.4107078,15.9268688 15.5771078,15.8633922 15.704,15.7365 C15.957825,15.482675 15.957825,15.0711031 15.704,14.8172781 Z M7.32968437,13.40625 C5.70657344,13.40625 4.18061719,12.7741656 3.0329,11.6264688 C1.88518281,10.4787516 1.25311875,8.95279531 1.25311875,7.32968438 C1.25311875,5.70657344 1.88518281,4.18061719 3.0329,3.0329 C4.18059687,1.88518281 5.70655312,1.25311875 7.32968437,1.25311875 C8.95281562,1.25311875 10.4787516,1.88518281 11.6264687,3.0329 C12.7741656,4.18059688 13.40625,5.70655313 13.40625,7.32968438 C13.40625,8.95281563 12.7741656,10.4787516 11.6264687,11.6264688 C10.4787516,12.7741656 8.95279531,13.40625 7.32968437,13.40625 Z" id="形状"></path>
            </g>
        </g>
    </g>
</svg>