<?xml version="1.0" encoding="UTF-8"?>
<svg width="189px" height="146px" viewBox="0 0 189 146" version="1.1" xmlns="http://www.w3.org/2000/svg" xmlns:xlink="http://www.w3.org/1999/xlink">
    <title>企业认证</title>
    <g id="企链" stroke="none" stroke-width="1" fill="none" fill-rule="evenodd">
        <g id="合作伙伴列表备份" transform="translate(-986.000000, -425.000000)" fill-rule="nonzero">
            <g id="合同管理" transform="translate(-7.000000, 0.000000)">
                <g id="企业认证" transform="translate(993.199121, 425.813000)">
                    <path d="M156.177519,4.79225854 L166.443706,4.79225854 C167.200336,4.79225854 167.813706,5.40562843 167.813706,6.16225854 L167.813706,7.39637116 C167.813706,8.15300127 167.200336,8.76637116 166.443706,8.76637116 L156.177519,8.76637116 C155.420889,8.76637116 154.807519,8.15300127 154.807519,7.39637116 L154.807519,6.16225854 C154.807519,5.40562843 155.420889,4.79225854 156.177519,4.79225854 Z" id="矩形" fill="#BCC6CE" transform="translate(161.310612, 6.779315) rotate(-68.550000) translate(-161.310612, -6.779315) "></path>
                    <path d="M177.112599,8.98111327 L165.652703,17.7819663 C165.237606,18.1078018 164.709605,18.2544384 164.185931,18.1893183 C163.662258,18.1241983 163.186251,17.8527111 162.863599,17.4351347 L162.863599,17.4351347 C162.193135,16.5680843 162.34803,15.3224653 163.210431,14.6460302 L174.684778,5.84517713 C175.099875,5.51934161 175.627876,5.37270509 176.15155,5.43782511 C176.675223,5.50294514 177.15123,5.77443237 177.473882,6.19200877 L177.473882,6.19200877 C178.141085,7.06283233 177.97966,8.30902852 177.112599,8.98111327 L177.112599,8.98111327 Z" id="路径" fill="#BCC6CE"></path>
                    <path d="M177.661749,23.0566976 L169.063215,24.299511 C168.543269,24.3822698 168.011857,24.2529561 167.588071,23.9405495 C167.164284,23.6281429 166.88356,23.1587668 166.808809,22.6376094 L166.808809,22.6376094 C166.644444,21.5529542 167.386996,20.5392091 168.470711,20.3687523 L177.141502,19.1259389 C178.228933,18.9703437 179.239667,19.7171279 179.410359,20.8022919 L179.410359,20.8022919 C179.483887,21.3342209 179.339795,21.873325 179.010682,22.2976358 C178.681569,22.7219465 178.195249,22.9956049 177.661749,23.0566976 L177.661749,23.0566976 Z" id="路径" fill="#BCC6CE"></path>
                    <path d="M7.05521716,40.0831096 L8.84718067,34.4181927 C8.87715195,34.2866834 8.99410005,34.1933894 9.12898138,34.1933894 C9.26386271,34.1933894 9.38081081,34.2866834 9.41078209,34.4181927 L11.2750022,40.0397557 C11.4487101,40.582433 11.873979,41.0077019 12.4166564,41.1814098 L18.0960246,43.0600813 C18.2275339,43.0900525 18.3208279,43.2070006 18.3208279,43.341882 C18.3208279,43.4767633 18.2275339,43.5937114 18.0960246,43.6236827 L12.5178156,45.6468673 C12.0190638,45.832933 11.6277726,46.2295119 11.448418,46.7307162 L9.46858737,52.3089252 C9.42251915,52.424181 9.31090832,52.499766 9.18678665,52.499766 C9.06266499,52.499766 8.95105416,52.424181 8.90498594,52.3089252 L7.04076584,46.8607781 C6.86678354,46.3529911 6.47433599,45.9499369 5.97136826,45.7624778 L0.19084081,43.6092314 C0.0755849811,43.5631631 0,43.4515523 0,43.3274307 C0,43.203309 0.0755849811,43.0916982 0.19084081,43.0456299 L5.97136826,41.2392151 C6.49267858,41.0432146 6.89322209,40.6159682 7.05521716,40.0831096 L7.05521716,40.0831096 Z" id="路径" fill="#207DED"></path>
                    <path d="M180.104383,73.7291288 C175.419394,73.7291288 171.621459,69.9311943 171.621459,65.2462047 C171.621459,60.5588717 175.417057,56.756801 180.104383,56.7488294 C184.794055,56.7567847 188.593803,60.5565331 188.601759,65.2462047 C188.593787,69.933531 184.791716,73.7291288 180.104383,73.7291288 L180.104383,73.7291288 Z M180.104383,61.084225 C177.811431,61.0921867 175.956855,62.9532386 175.956855,65.2462047 C175.956855,67.5368214 177.813766,69.3937584 180.104383,69.3937584 C181.206878,69.3975746 182.265534,68.9623006 183.046475,68.1840714 C183.827416,67.4058422 184.266363,66.3487061 184.266363,65.2462047 C184.266363,62.9476068 182.402981,61.084225 180.104383,61.084225 L180.104383,61.084225 Z" id="形状" fill="#BCC6CE"></path>
                    <circle id="椭圆形" fill="#BCC6CE" cx="38.8334799" cy="130.23576" r="4.36429823"></circle>
                    <g id="企业认证2" transform="translate(38.833480, 21.416052)" fill="#BCC6CE">
                        <path d="M110.441902,20.2297508 C110.441902,15.7236436 110.441902,11.28138 110.218148,7.19067888 C105.72042,8.42869514 101.102439,9.17870742 96.4440893,9.42774143 C78.515124,10.5144112 66.2110386,4.76184398 54.8976764,0 C42.3382164,7.28650472 19.1680365,12.7834559 0.184624977,7.19067888 L0.184624977,52.6997434 C0.184624977,57.8131499 -0.230781221,62.9265565 0.184624977,67.8800521 C1.59087513,83.4439055 11.5939336,94.9170578 21.56501,103.450023 C31.8238549,111.781173 43.247848,118.564502 55.4731142,123.583948 C62.4772203,120.485788 69.248705,116.886397 75.7348472,112.8138 C81.3106106,109.070007 86.6473947,104.982028 91.7141068,100.573679 C99.8315446,93.1912273 108.012947,83.795468 110.186166,71.4913826 C110.311951,70.5270519 110.376045,69.5556748 110.378059,68.5831772 L110.441902,20.2297508 Z" id="形状"></path>
                    </g>
                    <g id="编组-2" transform="translate(54.933400, 39.248830)" fill="#FFFFFF">
                        <polygon id="路径" points="70.9481684 71.4595212 3.83508506 71.4595212 3.83508506 64.7163513 13.4226167 64.7163513 13.4226167 36.3050776 20.6452777 36.3050776 20.6452777 64.7163513 33.9720686 64.7163513 33.9720686 22.7226708 41.7379438 22.7226708 41.7379438 40.1081805 63.789351 40.1081805 63.789351 46.6916809 41.7381852 46.6916809 41.7381852 64.7163513 71.0121328 64.7163513"></polygon>
                        <path d="M69.925463,34.2597875 C57.5069559,28.8710559 46.3661197,20.9210651 37.2318366,10.9299381 C28.22325,20.799094 17.2792742,28.7078968 5.08142434,34.1638409 C3.68282756,31.814437 1.97359769,29.6645032 0,27.7722336 C14.349617,22.1473537 28.7628362,11.7927327 36.49685,0 L43.1761762,3.19580364 C42.632962,4.0587189 41.9938012,4.85766981 41.3546405,5.72058507 C50.5485076,15.6085069 61.9787807,23.1483734 74.687307,27.7081486 C72.6308049,29.4963408 71.0033179,31.7246223 69.9255837,34.2276846 L69.925463,34.2597875 Z" id="路径"></path>
                    </g>
                </g>
            </g>
        </g>
    </g>
</svg>